<svg xmlns="http://www.w3.org/2000/svg" xmlns:svg="http://www.w3.org/2000/svg" id="svg2" width="800" height="800" version="1.1" viewBox="0 0 211.667 211.667"><defs id="defs4"><marker id="TriangleInS" orient="auto" refX="0" refY="0" style="overflow:visible"><path id="path4570" d="m 5.77,0 -8.65,5 0,-10 8.65,5 z" transform="scale(-0.2)" style="fill-rule:evenodd;stroke:#000;stroke-width:1.00000003pt"/></marker><marker id="TriangleOutS" orient="auto" refX="0" refY="0" style="overflow:visible"><path id="path4579" d="m 5.77,0 -8.65,5 0,-10 8.65,5 z" transform="scale(0.2)" style="fill:#000;fill-opacity:1;fill-rule:evenodd;stroke:#000;stroke-width:1.00000003pt;stroke-opacity:1"/></marker><marker id="TriangleOutM" orient="auto" refX="0" refY="0" style="overflow:visible"><path id="path4576" d="m 5.77,0 -8.65,5 0,-10 8.65,5 z" transform="scale(0.4)" style="fill:#000;fill-opacity:1;fill-rule:evenodd;stroke:#000;stroke-width:1.00000003pt;stroke-opacity:1"/></marker><marker style="overflow:visible" id="marker8188" orient="auto" refX="0" refY="0"><path style="fill:#000;fill-opacity:1;fill-rule:evenodd;stroke:#000;stroke-width:1.00000003pt;stroke-opacity:1" id="path8190" d="m 5.77,0 -8.65,5 0,-10 8.65,5 z" transform="scale(-0.2)"/></marker><marker id="marker7890" orient="auto" refX="0" refY="0" style="overflow:visible"><path id="path7892" d="M 8.7185878,4.0337352 -2.2072895,0.01601326 8.7185884,-4.0017078 c -1.7454984,2.3720609 -1.7354408,5.6174519 -6e-7,8.035443 z" transform="matrix(-0.3,0,0,-0.3,0.69,0)" style="fill:#000;fill-opacity:1;fill-rule:evenodd;stroke:#000;stroke-width:.625;stroke-linejoin:round;stroke-opacity:1"/></marker><marker id="marker7748" orient="auto" refX="0" refY="0" style="overflow:visible"><path id="path7750" d="M 8.7185878,4.0337352 -2.2072895,0.01601326 8.7185884,-4.0017078 c -1.7454984,2.3720609 -1.7354408,5.6174519 -6e-7,8.035443 z" transform="matrix(-0.3,0,0,-0.3,0.69,0)" style="fill:#000;fill-opacity:1;fill-rule:evenodd;stroke:#000;stroke-width:.625;stroke-linejoin:round;stroke-opacity:1"/></marker><marker id="Arrow2Send" orient="auto" refX="0" refY="0" style="overflow:visible"><path id="path4464" d="M 8.7185878,4.0337352 -2.2072895,0.01601326 8.7185884,-4.0017078 c -1.7454984,2.3720609 -1.7354408,5.6174519 -6e-7,8.035443 z" transform="matrix(-0.3,0,0,-0.3,0.69,0)" style="fill:#000;fill-opacity:1;fill-rule:evenodd;stroke:#000;stroke-width:.625;stroke-linejoin:round;stroke-opacity:1"/></marker><marker style="overflow:visible" id="marker7472" orient="auto" refX="0" refY="0"><path style="fill:#000;fill-opacity:1;fill-rule:evenodd;stroke:#000;stroke-width:1.00000003pt;stroke-opacity:1" id="path7474" d="m 5.77,0 -8.65,5 0,-10 8.65,5 z" transform="scale(-0.2)"/></marker><marker style="overflow:visible" id="marker7198" orient="auto" refX="0" refY="0"><path style="fill:#000;fill-opacity:1;fill-rule:evenodd;stroke:#000;stroke-width:1.00000003pt;stroke-opacity:1" id="path7200" d="m 5.77,0 -8.65,5 0,-10 8.65,5 z" transform="scale(-0.2)"/></marker><marker id="marker6718" orient="auto" refX="0" refY="0" style="overflow:visible"><path id="path6720" d="M 0,0 5,-5 -12.5,0 5,5 0,0 Z" transform="matrix(0.8,0,0,0.8,10,0)" style="fill:#000;fill-opacity:1;fill-rule:evenodd;stroke:#000;stroke-width:1.00000003pt;stroke-opacity:1"/></marker><marker id="EmptyTriangleInS" orient="auto" refX="0" refY="0" style="overflow:visible"><path id="path4588" d="m 5.77,0 -8.65,5 0,-10 8.65,5 z" transform="matrix(-0.2,0,0,-0.2,0.6,0)" style="fill:#fff;fill-rule:evenodd;stroke:#000;stroke-width:1.00000003pt;stroke-opacity:1"/></marker><marker id="marker5536" orient="auto" refX="0" refY="0" style="overflow:visible"><path id="path5538" d="M 0,0 5,-5 -12.5,0 5,5 0,0 Z" transform="matrix(0.2,0,0,0.2,1.2,0)" style="fill:#000;fill-opacity:1;fill-rule:evenodd;stroke:#000;stroke-width:1.00000003pt;stroke-opacity:1"/></marker><marker id="Arrow1Mstart" orient="auto" refX="0" refY="0" style="overflow:visible"><path id="path4437" d="M 0,0 5,-5 -12.5,0 5,5 0,0 Z" transform="matrix(0.4,0,0,0.4,4,0)" style="fill:#000;fill-opacity:1;fill-rule:evenodd;stroke:#000;stroke-width:1.00000003pt;stroke-opacity:1"/></marker><marker id="marker5158" orient="auto-start-reverse" refX="5" refY="3"><path id="path5160" d="M 10,3 0,6 0,0 Z" style="fill:context-stroke;stroke:#000;stroke-opacity:1"/></marker><marker id="ExperimentalArrow" orient="auto-start-reverse" refX="5" refY="3"><path id="path4684" d="M 10,3 0,6 0,0 Z" style="fill:context-stroke;stroke:#007ba7;stroke-opacity:1"/></marker><marker id="marker4970" orient="auto" refX="0" refY="0" style="overflow:visible"><path id="path4972" d="M 0,0 5,-5 -12.5,0 5,5 0,0 Z" transform="matrix(0.8,0,0,0.8,10,0)" style="fill:#007ba7;fill-opacity:1;fill-rule:evenodd;stroke:#007ba7;stroke-width:1.00000003pt;stroke-opacity:1"/></marker><marker id="Arrow1Send" orient="auto" refX="0" refY="0" style="overflow:visible"><path id="path4446" d="M 0,0 5,-5 -12.5,0 5,5 0,0 Z" transform="matrix(-0.2,0,0,-0.2,-1.2,0)" style="fill:#000;fill-opacity:1;fill-rule:evenodd;stroke:#000;stroke-width:1.00000003pt;stroke-opacity:1"/></marker><marker id="Arrow2Lstart" orient="auto" refX="0" refY="0" style="overflow:visible"><path id="path4449" d="M 8.7185878,4.0337352 -2.2072895,0.01601326 8.7185884,-4.0017078 c -1.7454984,2.3720609 -1.7354408,5.6174519 -6e-7,8.035443 z" transform="matrix(1.1,0,0,1.1,1.1,0)" style="fill:#007ba7;fill-opacity:1;fill-rule:evenodd;stroke:#007ba7;stroke-width:.625;stroke-linejoin:round;stroke-opacity:1"/></marker><marker id="marker4776" orient="auto" refX="0" refY="0" style="overflow:visible"><path id="path4778" d="M 0,0 5,-5 -12.5,0 5,5 0,0 Z" transform="matrix(0.8,0,0,0.8,10,0)" style="fill:#007ba7;fill-opacity:1;fill-rule:evenodd;stroke:#007ba7;stroke-width:1.00000003pt;stroke-opacity:1"/></marker><marker id="marker4748" orient="auto" refX="0" refY="0" style="overflow:visible"><path id="path4750" d="M 0,0 5,-5 -12.5,0 5,5 0,0 Z" transform="matrix(0.8,0,0,0.8,10,0)" style="fill:#007ba7;fill-opacity:1;fill-rule:evenodd;stroke:#007ba7;stroke-width:1.00000003pt;stroke-opacity:1"/></marker><marker id="Arrow1Sstart" orient="auto" refX="0" refY="0" style="overflow:visible"><path id="path4443" d="M 0,0 5,-5 -12.5,0 5,5 0,0 Z" transform="matrix(0.2,0,0,0.2,1.2,0)" style="fill:#007ba7;fill-opacity:1;fill-rule:evenodd;stroke:#007ba7;stroke-width:1.00000003pt;stroke-opacity:1"/></marker><marker id="Arrow1Lstart" orient="auto" refX="0" refY="0" style="overflow:visible"><path id="path4431" d="M 0,0 5,-5 -12.5,0 5,5 0,0 Z" transform="matrix(0.8,0,0,0.8,10,0)" style="fill:#007ba7;fill-opacity:1;fill-rule:evenodd;stroke:#007ba7;stroke-width:1.00000003pt;stroke-opacity:1"/></marker></defs><metadata id="metadata7"/><g id="layer2" transform="translate(0,-211.66668)" style="display:inline"><rect style="display:inline;opacity:1;fill:#fff;fill-opacity:1;fill-rule:nonzero;stroke:none;stroke-width:21.40888977;stroke-linecap:butt;stroke-linejoin:miter;stroke-miterlimit:4;stroke-dasharray:none;stroke-dashoffset:0;stroke-opacity:1" id="rect10940" width="211.667" height="211.667" x="0" y="211.667"/></g><g id="layer4"><path style="display:inline;opacity:1;fill:#2ecc71;fill-opacity:1;fill-rule:nonzero;stroke:none;stroke-width:2.48618841;stroke-linecap:butt;stroke-linejoin:miter;stroke-miterlimit:4;stroke-dasharray:none;stroke-dashoffset:0;stroke-opacity:1" id="rect4596-7-5-4-6-5-0-3" d="M 45.643973,48.289797 A 92.604171,92.604171 0 0 0 18.578975,113.77084 l 13.220429,-1e-5 A 79.375001,79.375001 0 0 1 54.998402,57.644237 l -10e-7,-9.35443 -9.354428,-1e-5 z"/><path style="display:inline;opacity:1;fill:#3498db;fill-opacity:1;fill-rule:nonzero;stroke:none;stroke-width:2.48618841;stroke-linecap:butt;stroke-linejoin:miter;stroke-miterlimit:4;stroke-dasharray:none;stroke-dashoffset:0;stroke-opacity:1" id="rect4596-7-5" d="M 193.14585,113.77083 A 92.604171,92.604171 0 0 0 165.9816,48.330897 l -9.34825,9.34827 a 79.375001,79.375001 0 0 1 23.28333,56.091663 l 6.61458,6.61458 6.61459,-6.61458 z"/><path style="display:inline;opacity:1;fill:#f1c40f;fill-opacity:1;fill-rule:nonzero;stroke:none;stroke-width:2.48618841;stroke-linecap:butt;stroke-linejoin:miter;stroke-miterlimit:4;stroke-dasharray:none;stroke-dashoffset:0;stroke-opacity:1" id="rect4596-7-5-4-6-5-5" d="m 74.160829,179.62301 a 92.604171,92.604171 0 0 0 70.784161,-3.14427 l -5.58721,-11.98177 a 79.375001,79.375001 0 0 1 -60.672293,2.69469 l -8.477992,3.95335 3.953334,8.478 z"/></g><g id="layer1" transform="translate(0,-85.333322)" style="display:inline"><flowRoot id="flowRoot10127" transform="translate(8.3333332e-7,103.18756)" xml:space="preserve" style="font-style:normal;font-weight:400;font-size:20px;line-height:125%;font-family:Sans;letter-spacing:0;word-spacing:0;fill:#000;fill-opacity:1;stroke:none;stroke-width:1px;stroke-linecap:butt;stroke-linejoin:miter;stroke-opacity:1"><flowRegion id="flowRegion10129"><rect id="rect10131" width="142.562" height="254.69" x="217.443" y="920.309"/></flowRegion><flowPara id="flowPara10133"/></flowRoot><g id="g4551" transform="translate(-13.229152,-8.6414791)"><rect id="rect4565-4" width="66.146" height="21.167" x="145.521" y="132.996" transform="translate(0,85.333322)" style="display:inline;opacity:1;fill:#ecf0f1;fill-opacity:.78431373;fill-rule:nonzero;stroke:none;stroke-width:.05291667;stroke-linecap:butt;stroke-linejoin:miter;stroke-miterlimit:4;stroke-dasharray:none;stroke-dashoffset:0;stroke-opacity:1"/><text style="font-style:normal;font-variant:normal;font-weight:400;font-stretch:normal;font-size:4.93888903px;line-height:125%;font-family:'Open Sans';-inkscape-font-specification:'Open Sans';letter-spacing:0;word-spacing:0;display:inline;fill:#000;fill-opacity:1;stroke:none;stroke-width:.26458335px;stroke-linecap:butt;stroke-linejoin:miter;stroke-opacity:1" id="text4192-1-4-71-1-3-7-5-0-0-1" x="178.778" y="225.754" xml:space="preserve"><tspan id="tspan4442" x="178.778" y="225.754" style="font-style:normal;font-variant:normal;font-weight:500;font-stretch:normal;font-size:8.46666718px;font-family:'Source Code Pro';-inkscape-font-specification:'Source Code Pro Medium';text-align:center;text-anchor:middle;fill:#000;fill-opacity:1;stroke-width:.26458335px">Automate</tspan><tspan id="tspan4537" x="178.778" y="236.337" style="font-style:normal;font-variant:normal;font-weight:500;font-stretch:normal;font-size:8.46666718px;font-family:'Source Code Pro';-inkscape-font-specification:'Source Code Pro Medium';text-align:center;text-anchor:middle;fill:#000;fill-opacity:1;stroke-width:.26458335px">&amp; Develop</tspan></text></g><g id="g4544" transform="translate(13.229167,-15.501404)"><rect id="rect4565-1" width="66.146" height="21.167" x="0" y="139.856" transform="translate(0,85.333322)" style="display:inline;opacity:1;fill:#ecf0f1;fill-opacity:.78431373;fill-rule:nonzero;stroke:none;stroke-width:.05291667;stroke-linecap:butt;stroke-linejoin:miter;stroke-miterlimit:4;stroke-dasharray:none;stroke-dashoffset:0;stroke-opacity:1"/><text style="font-style:normal;font-variant:normal;font-weight:400;font-stretch:normal;font-size:4.93888903px;line-height:125%;font-family:'Open Sans';-inkscape-font-specification:'Open Sans';letter-spacing:0;word-spacing:0;display:inline;fill:#000;fill-opacity:1;stroke:none;stroke-width:.26458335px;stroke-linecap:butt;stroke-linejoin:miter;stroke-opacity:1" id="text4192-1-4-71-1-3-7-5-0-0-1-7-5-4-4" x="32.974" y="232.436" xml:space="preserve"><tspan id="tspan4513-0" x="32.974" y="232.436" style="font-style:normal;font-variant:normal;font-weight:500;font-stretch:normal;font-size:8.46666718px;font-family:'Source Code Pro';-inkscape-font-specification:'Source Code Pro Medium';text-align:center;text-anchor:middle;fill:#000;fill-opacity:1;stroke-width:.26458335px">Demo</tspan><tspan id="tspan4541" x="32.974" y="243.02" style="font-style:normal;font-variant:normal;font-weight:500;font-stretch:normal;font-size:8.46666718px;font-family:'Source Code Pro';-inkscape-font-specification:'Source Code Pro Medium';text-align:center;text-anchor:middle;fill:#000;fill-opacity:1;stroke-width:.26458335px">&amp; Deliver</tspan></text></g><g id="g4558" transform="translate(2.9382324e-6,21.166659)"><rect id="rect4565-42" width="66.146" height="21.167" x="72.76" y="0" transform="translate(0,85.333322)" style="display:inline;opacity:1;fill:#ecf0f1;fill-opacity:.78431373;fill-rule:nonzero;stroke:none;stroke-width:.05291667;stroke-linecap:butt;stroke-linejoin:miter;stroke-miterlimit:4;stroke-dasharray:none;stroke-dashoffset:0;stroke-opacity:1"/><text style="font-style:normal;font-variant:normal;font-weight:400;font-stretch:normal;font-size:4.93888903px;line-height:125%;font-family:'Open Sans';-inkscape-font-specification:'Open Sans';letter-spacing:0;word-spacing:0;display:inline;fill:#000;fill-opacity:1;stroke:none;stroke-width:.26458335px;stroke-linecap:butt;stroke-linejoin:miter;stroke-opacity:1" id="text4192-1-4-71-1-3-7-5-0-0-1-7-5-4-4-5" x="105.95" y="92.602" xml:space="preserve"><tspan id="tspan4513-0-6" x="105.95" y="92.602" style="font-style:normal;font-variant:normal;font-weight:500;font-stretch:normal;font-size:8.46666718px;font-family:'Source Code Pro';-inkscape-font-specification:'Source Code Pro Medium';text-align:center;text-anchor:middle;fill:#000;fill-opacity:1;stroke-width:.26458335px">Discuss</tspan><tspan id="tspan4533" x="105.95" y="103.185" style="font-style:normal;font-variant:normal;font-weight:500;font-stretch:normal;font-size:8.46666718px;font-family:'Source Code Pro';-inkscape-font-specification:'Source Code Pro Medium';text-align:center;text-anchor:middle;fill:#000;fill-opacity:1;stroke-width:.26458335px">&amp; Refine</tspan></text></g><text style="font-style:normal;font-variant:normal;font-weight:400;font-stretch:normal;font-size:4.93888903px;line-height:125%;font-family:'Open Sans';-inkscape-font-specification:'Open Sans';letter-spacing:0;word-spacing:0;display:inline;fill:#000;fill-opacity:1;stroke:none;stroke-width:.26458335px;stroke-linecap:butt;stroke-linejoin:miter;stroke-opacity:1" id="text4192-1-4-71-1-3-7-5-0-0-1-7-5-4-4-5-6" x="105.832" y="134.439" xml:space="preserve"><tspan id="tspan4533-0" x="105.832" y="134.439" style="font-style:normal;font-variant:normal;font-weight:300;font-stretch:normal;font-size:5.64444447px;font-family:'Source Code Pro';-inkscape-font-specification:'Source Code Pro Light';text-align:center;text-anchor:middle;fill:#000;fill-opacity:1;stroke-width:.26458335px">Define Acceptance Criteria</tspan></text><text style="font-style:normal;font-variant:normal;font-weight:400;font-stretch:normal;font-size:4.93888903px;line-height:125%;font-family:'Open Sans';-inkscape-font-specification:'Open Sans';letter-spacing:0;word-spacing:0;display:inline;fill:#000;fill-opacity:1;stroke:none;stroke-width:.26458335px;stroke-linecap:butt;stroke-linejoin:miter;stroke-opacity:1" id="text4192-1-4-71-1-3-7-5-0-0-1-7-5-4-4-5-6-8" x="162.718" y="237.626" xml:space="preserve"><tspan id="tspan4533-0-5" x="162.718" y="237.626" style="font-style:normal;font-variant:normal;font-weight:300;font-stretch:normal;font-size:5.64444447px;font-family:'Source Code Pro';-inkscape-font-specification:'Source Code Pro Light';text-align:center;text-anchor:middle;fill:#000;fill-opacity:1;stroke-width:.26458335px">Automate Acceptance Criteria</tspan></text><text style="font-style:normal;font-variant:normal;font-weight:400;font-stretch:normal;font-size:4.93888903px;line-height:125%;font-family:'Open Sans';-inkscape-font-specification:'Open Sans';letter-spacing:0;word-spacing:0;display:inline;fill:#000;fill-opacity:1;stroke:none;stroke-width:.26458335px;stroke-linecap:butt;stroke-linejoin:miter;stroke-opacity:1" id="text4192-1-4-71-1-3-7-5-0-0-1-7-5-4-4-5-6-8-1" x="165.363" y="245.563" xml:space="preserve"><tspan id="tspan4533-0-5-6" x="165.363" y="245.563" style="font-style:normal;font-variant:normal;font-weight:300;font-stretch:normal;font-size:5.64444447px;font-family:'Source Code Pro';-inkscape-font-specification:'Source Code Pro Light';text-align:center;text-anchor:middle;fill:#000;fill-opacity:1;stroke-width:.26458335px">Build &amp; Test</tspan></text><text style="font-style:normal;font-variant:normal;font-weight:400;font-stretch:normal;font-size:4.93888903px;line-height:125%;font-family:'Open Sans';-inkscape-font-specification:'Open Sans';letter-spacing:0;word-spacing:0;display:inline;fill:#000;fill-opacity:1;stroke:none;stroke-width:.26458335px;stroke-linecap:butt;stroke-linejoin:miter;stroke-opacity:1" id="text4192-1-4-71-1-3-7-5-0-0-1-7-5-4-4-5-6-8-9" x="49.091" y="237.406" xml:space="preserve"><tspan id="tspan4533-0-5-0" x="49.091" y="237.406" style="font-style:normal;font-variant:normal;font-weight:300;font-stretch:normal;font-size:5.64444447px;font-family:'Source Code Pro';-inkscape-font-specification:'Source Code Pro Light';text-align:center;text-anchor:middle;fill:#000;fill-opacity:1;stroke-width:.26458335px">Passing Acceptance Criteria</tspan></text></g></svg>