<svg xmlns="http://www.w3.org/2000/svg" xmlns:svg="http://www.w3.org/2000/svg" id="svg2" width="800" height="400" version="1.1" viewBox="0 0 211.667 105.833"><defs id="defs4"><marker id="TriangleInS" orient="auto" refX="0" refY="0" style="overflow:visible"><path id="path4570" d="m 5.77,0 -8.65,5 0,-10 8.65,5 z" transform="scale(-0.2)" style="fill-rule:evenodd;stroke:#000;stroke-width:1.00000003pt"/></marker><marker id="TriangleOutS" orient="auto" refX="0" refY="0" style="overflow:visible"><path id="path4579" d="m 5.77,0 -8.65,5 0,-10 8.65,5 z" transform="scale(0.2)" style="fill:#000;fill-opacity:1;fill-rule:evenodd;stroke:#000;stroke-width:1.00000003pt;stroke-opacity:1"/></marker><marker id="TriangleOutM" orient="auto" refX="0" refY="0" style="overflow:visible"><path id="path4576" d="m 5.77,0 -8.65,5 0,-10 8.65,5 z" transform="scale(0.4)" style="fill:#000;fill-opacity:1;fill-rule:evenodd;stroke:#000;stroke-width:1.00000003pt;stroke-opacity:1"/></marker><marker style="overflow:visible" id="marker8188" orient="auto" refX="0" refY="0"><path style="fill:#000;fill-opacity:1;fill-rule:evenodd;stroke:#000;stroke-width:1.00000003pt;stroke-opacity:1" id="path8190" d="m 5.77,0 -8.65,5 0,-10 8.65,5 z" transform="scale(-0.2)"/></marker><marker id="marker7890" orient="auto" refX="0" refY="0" style="overflow:visible"><path id="path7892" d="M 8.7185878,4.0337352 -2.2072895,0.01601326 8.7185884,-4.0017078 c -1.7454984,2.3720609 -1.7354408,5.6174519 -6e-7,8.035443 z" transform="matrix(-0.3,0,0,-0.3,0.69,0)" style="fill:#000;fill-opacity:1;fill-rule:evenodd;stroke:#000;stroke-width:.625;stroke-linejoin:round;stroke-opacity:1"/></marker><marker id="marker7748" orient="auto" refX="0" refY="0" style="overflow:visible"><path id="path7750" d="M 8.7185878,4.0337352 -2.2072895,0.01601326 8.7185884,-4.0017078 c -1.7454984,2.3720609 -1.7354408,5.6174519 -6e-7,8.035443 z" transform="matrix(-0.3,0,0,-0.3,0.69,0)" style="fill:#000;fill-opacity:1;fill-rule:evenodd;stroke:#000;stroke-width:.625;stroke-linejoin:round;stroke-opacity:1"/></marker><marker id="Arrow2Send" orient="auto" refX="0" refY="0" style="overflow:visible"><path id="path4464" d="M 8.7185878,4.0337352 -2.2072895,0.01601326 8.7185884,-4.0017078 c -1.7454984,2.3720609 -1.7354408,5.6174519 -6e-7,8.035443 z" transform="matrix(-0.3,0,0,-0.3,0.69,0)" style="fill:#000;fill-opacity:1;fill-rule:evenodd;stroke:#000;stroke-width:.625;stroke-linejoin:round;stroke-opacity:1"/></marker><marker style="overflow:visible" id="marker7472" orient="auto" refX="0" refY="0"><path style="fill:#000;fill-opacity:1;fill-rule:evenodd;stroke:#000;stroke-width:1.00000003pt;stroke-opacity:1" id="path7474" d="m 5.77,0 -8.65,5 0,-10 8.65,5 z" transform="scale(-0.2)"/></marker><marker style="overflow:visible" id="marker7198" orient="auto" refX="0" refY="0"><path style="fill:#000;fill-opacity:1;fill-rule:evenodd;stroke:#000;stroke-width:1.00000003pt;stroke-opacity:1" id="path7200" d="m 5.77,0 -8.65,5 0,-10 8.65,5 z" transform="scale(-0.2)"/></marker><marker id="marker6718" orient="auto" refX="0" refY="0" style="overflow:visible"><path id="path6720" d="M 0,0 5,-5 -12.5,0 5,5 0,0 Z" transform="matrix(0.8,0,0,0.8,10,0)" style="fill:#000;fill-opacity:1;fill-rule:evenodd;stroke:#000;stroke-width:1.00000003pt;stroke-opacity:1"/></marker><marker id="EmptyTriangleInS" orient="auto" refX="0" refY="0" style="overflow:visible"><path id="path4588" d="m 5.77,0 -8.65,5 0,-10 8.65,5 z" transform="matrix(-0.2,0,0,-0.2,0.6,0)" style="fill:#fff;fill-rule:evenodd;stroke:#000;stroke-width:1.00000003pt;stroke-opacity:1"/></marker><marker id="marker5536" orient="auto" refX="0" refY="0" style="overflow:visible"><path id="path5538" d="M 0,0 5,-5 -12.5,0 5,5 0,0 Z" transform="matrix(0.2,0,0,0.2,1.2,0)" style="fill:#000;fill-opacity:1;fill-rule:evenodd;stroke:#000;stroke-width:1.00000003pt;stroke-opacity:1"/></marker><marker id="Arrow1Mstart" orient="auto" refX="0" refY="0" style="overflow:visible"><path id="path4437" d="M 0,0 5,-5 -12.5,0 5,5 0,0 Z" transform="matrix(0.4,0,0,0.4,4,0)" style="fill:#000;fill-opacity:1;fill-rule:evenodd;stroke:#000;stroke-width:1.00000003pt;stroke-opacity:1"/></marker><marker id="marker5158" orient="auto-start-reverse" refX="5" refY="3"><path id="path5160" d="M 10,3 0,6 0,0 Z" style="fill:context-stroke;stroke:#000;stroke-opacity:1"/></marker><marker id="ExperimentalArrow" orient="auto-start-reverse" refX="5" refY="3"><path id="path4684" d="M 10,3 0,6 0,0 Z" style="fill:context-stroke;stroke:#007ba7;stroke-opacity:1"/></marker><marker id="marker4970" orient="auto" refX="0" refY="0" style="overflow:visible"><path id="path4972" d="M 0,0 5,-5 -12.5,0 5,5 0,0 Z" transform="matrix(0.8,0,0,0.8,10,0)" style="fill:#007ba7;fill-opacity:1;fill-rule:evenodd;stroke:#007ba7;stroke-width:1.00000003pt;stroke-opacity:1"/></marker><marker id="Arrow1Send" orient="auto" refX="0" refY="0" style="overflow:visible"><path id="path4446" d="M 0,0 5,-5 -12.5,0 5,5 0,0 Z" transform="matrix(-0.2,0,0,-0.2,-1.2,0)" style="fill:#000;fill-opacity:1;fill-rule:evenodd;stroke:#000;stroke-width:1.00000003pt;stroke-opacity:1"/></marker><marker id="Arrow2Lstart" orient="auto" refX="0" refY="0" style="overflow:visible"><path id="path4449" d="M 8.7185878,4.0337352 -2.2072895,0.01601326 8.7185884,-4.0017078 c -1.7454984,2.3720609 -1.7354408,5.6174519 -6e-7,8.035443 z" transform="matrix(1.1,0,0,1.1,1.1,0)" style="fill:#007ba7;fill-opacity:1;fill-rule:evenodd;stroke:#007ba7;stroke-width:.625;stroke-linejoin:round;stroke-opacity:1"/></marker><marker id="marker4776" orient="auto" refX="0" refY="0" style="overflow:visible"><path id="path4778" d="M 0,0 5,-5 -12.5,0 5,5 0,0 Z" transform="matrix(0.8,0,0,0.8,10,0)" style="fill:#007ba7;fill-opacity:1;fill-rule:evenodd;stroke:#007ba7;stroke-width:1.00000003pt;stroke-opacity:1"/></marker><marker id="marker4748" orient="auto" refX="0" refY="0" style="overflow:visible"><path id="path4750" d="M 0,0 5,-5 -12.5,0 5,5 0,0 Z" transform="matrix(0.8,0,0,0.8,10,0)" style="fill:#007ba7;fill-opacity:1;fill-rule:evenodd;stroke:#007ba7;stroke-width:1.00000003pt;stroke-opacity:1"/></marker><marker id="Arrow1Sstart" orient="auto" refX="0" refY="0" style="overflow:visible"><path id="path4443" d="M 0,0 5,-5 -12.5,0 5,5 0,0 Z" transform="matrix(0.2,0,0,0.2,1.2,0)" style="fill:#007ba7;fill-opacity:1;fill-rule:evenodd;stroke:#007ba7;stroke-width:1.00000003pt;stroke-opacity:1"/></marker><marker id="Arrow1Lstart" orient="auto" refX="0" refY="0" style="overflow:visible"><path id="path4431" d="M 0,0 5,-5 -12.5,0 5,5 0,0 Z" transform="matrix(0.8,0,0,0.8,10,0)" style="fill:#007ba7;fill-opacity:1;fill-rule:evenodd;stroke:#007ba7;stroke-width:1.00000003pt;stroke-opacity:1"/></marker></defs><metadata id="metadata7"/><g id="layer2" transform="translate(0,-317.50001)" style="display:inline"><rect style="display:inline;opacity:1;fill:#fff;fill-opacity:1;fill-rule:nonzero;stroke:none;stroke-width:15.13837433;stroke-linecap:butt;stroke-linejoin:miter;stroke-miterlimit:4;stroke-dasharray:none;stroke-dashoffset:0;stroke-opacity:1" id="rect10940" width="211.667" height="105.833" x="0" y="317.5"/></g><g id="layer1" transform="translate(0,-191.16665)" style="display:inline"><flowRoot id="flowRoot10127" transform="translate(8.3333332e-7,103.18756)" xml:space="preserve" style="font-style:normal;font-weight:400;font-size:20px;line-height:125%;font-family:Sans;letter-spacing:0;word-spacing:0;fill:#000;fill-opacity:1;stroke:none;stroke-width:1px;stroke-linecap:butt;stroke-linejoin:miter;stroke-opacity:1"><flowRegion id="flowRegion10129"><rect id="rect10131" width="142.562" height="254.69" x="217.443" y="920.309"/></flowRegion><flowPara id="flowPara10133"/></flowRoot><g id="g4524" transform="translate(7.7463,2.1680879)"><path style="opacity:1;fill:#e74c3c;fill-opacity:1;fill-rule:nonzero;stroke:none;stroke-width:.22052541;stroke-linecap:butt;stroke-linejoin:miter;stroke-miterlimit:4;stroke-dasharray:none;stroke-dashoffset:0;stroke-opacity:1" id="rect4480" d="m 160.72266,23.367188 0,80.000002 420,0 0,-80.000002 -420,0 z m 10,10 400,0 0,60 -400,0 0,-60 z" transform="matrix(0.26458334,0,0,0.26458334,-2.1760803e-6,190.75349)"/><text style="font-style:normal;font-variant:normal;font-weight:400;font-stretch:normal;font-size:4.93888903px;line-height:125%;font-family:'Open Sans';-inkscape-font-specification:'Open Sans';letter-spacing:0;word-spacing:0;display:inline;fill:#000;fill-opacity:1;stroke:none;stroke-width:.26458335px;stroke-linecap:butt;stroke-linejoin:miter;stroke-opacity:1" id="text4192-1-4-71-1-3-7-5-0-0-1-7-5-4-4-5-1" x="98.233" y="209.649" xml:space="preserve"><tspan id="tspan4513-0-6-9" x="98.233" y="209.649" style="font-style:normal;font-variant:normal;font-weight:500;font-stretch:normal;font-size:8.46666718px;font-family:'Source Code Pro';-inkscape-font-specification:'Source Code Pro Medium';text-align:center;text-anchor:middle;fill:#000;fill-opacity:1;stroke-width:.26458335px">Working Directory</tspan></text></g><g id="g4519" transform="translate(-33.657881,-3.3211976)"><path style="display:inline;opacity:1;fill:#f1c40f;fill-opacity:1;fill-rule:nonzero;stroke:none;stroke-width:.05834735;stroke-linecap:butt;stroke-linejoin:miter;stroke-miterlimit:4;stroke-dasharray:none;stroke-dashoffset:0;stroke-opacity:1" id="rect4480-1" d="m 83.928722,236.82118 0,21.16667 111.124998,0 0,-21.16667 -111.124998,0 z m 2.645833,2.64583 105.833335,0 0,15.875 -105.833335,0 0,-15.875 z"/><text style="font-style:normal;font-variant:normal;font-weight:400;font-stretch:normal;font-size:4.93888903px;line-height:125%;font-family:'Open Sans';-inkscape-font-specification:'Open Sans';letter-spacing:0;word-spacing:0;display:inline;fill:#000;fill-opacity:1;stroke:none;stroke-width:.26458335px;stroke-linecap:butt;stroke-linejoin:miter;stroke-opacity:1" id="text4192-1-4-71-1-3-7-5-0-0-1-7-5-4-4-5-1-7" x="139.637" y="249.534" xml:space="preserve"><tspan id="tspan4513-0-6-9-1" x="139.637" y="249.534" style="font-style:normal;font-variant:normal;font-weight:500;font-stretch:normal;font-size:8.46666718px;font-family:'Source Code Pro';-inkscape-font-specification:'Source Code Pro Medium';text-align:center;text-anchor:middle;fill:#000;fill-opacity:1;stroke-width:.26458335px">Staging Area</tspan></text></g><g id="g4556" transform="translate(-50.193321,-16.835717)"><path style="display:inline;opacity:1;fill:#2ecc71;fill-opacity:1;fill-rule:nonzero;stroke:none;stroke-width:.05834735;stroke-linecap:butt;stroke-linejoin:miter;stroke-miterlimit:4;stroke-dasharray:none;stroke-dashoffset:0;stroke-opacity:1" id="rect4480-1-1" d="m 100.46416,284.73154 0,21.16667 111.125,0 0,-21.16667 -111.125,0 z m 2.64583,2.64583 105.83334,0 0,15.875 -105.83334,0 0,-15.875 z"/><text style="font-style:normal;font-variant:normal;font-weight:400;font-stretch:normal;font-size:4.93888903px;line-height:125%;font-family:'Open Sans';-inkscape-font-specification:'Open Sans';letter-spacing:0;word-spacing:0;display:inline;fill:#000;fill-opacity:1;stroke:none;stroke-width:.26458335px;stroke-linecap:butt;stroke-linejoin:miter;stroke-opacity:1" id="text4192-1-4-71-1-3-7-5-0-0-1-7-5-4-4-5-1-7-2" x="156.173" y="297.444" xml:space="preserve"><tspan id="tspan4513-0-6-9-1-1" x="156.173" y="297.444" style="font-style:normal;font-variant:normal;font-weight:500;font-stretch:normal;font-size:8.46666718px;font-family:'Source Code Pro';-inkscape-font-specification:'Source Code Pro Medium';text-align:center;text-anchor:middle;fill:#000;fill-opacity:1;stroke-width:.26458335px">Repository</tspan></text></g><text style="font-style:normal;font-variant:normal;font-weight:400;font-stretch:normal;font-size:4.93888903px;line-height:125%;font-family:'Open Sans';-inkscape-font-specification:'Open Sans';letter-spacing:0;word-spacing:0;display:inline;fill:#000;fill-opacity:1;stroke:none;stroke-width:.26458335px;stroke-linecap:butt;stroke-linejoin:miter;stroke-opacity:1" id="text4192-1-4-71-1-3-7-5-0-0-1-7-5-4-4-5-1-1" x="105.921" y="229.015" xml:space="preserve"><tspan id="tspan4513-0-6-9-0" x="105.921" y="229.015" style="font-style:normal;font-variant:normal;font-weight:500;font-stretch:normal;font-size:8.46666718px;font-family:'Source Code Pro';-inkscape-font-specification:'Source Code Pro Medium';text-align:center;text-anchor:middle;fill:#000;fill-opacity:1;stroke-width:.26458335px">git add</tspan></text><path id="rect4622-4" d="m 67.468758,226.8854 0,-6.61459 2.645834,0 2.645833,0 0,6.61459 3.96875,0 -6.614583,6.61458 -6.614584,-6.61458 z" style="display:inline;opacity:1;fill:#34495e;fill-opacity:1;fill-rule:nonzero;stroke:none;stroke-width:.0774383;stroke-linecap:butt;stroke-linejoin:miter;stroke-miterlimit:4;stroke-dasharray:none;stroke-dashoffset:0;stroke-opacity:1"/><path id="rect4622-45" d="m 138.90625,226.88542 0,-6.61459 2.64584,0 2.64583,0 0,6.61459 3.96875,0 -6.61458,6.61458 -6.61459,-6.61458 z" style="display:inline;opacity:1;fill:#34495e;fill-opacity:1;fill-rule:nonzero;stroke:none;stroke-width:.0774383;stroke-linecap:butt;stroke-linejoin:miter;stroke-miterlimit:4;stroke-dasharray:none;stroke-dashoffset:0;stroke-opacity:1"/><text style="font-style:normal;font-variant:normal;font-weight:400;font-stretch:normal;font-size:4.93888903px;line-height:125%;font-family:'Open Sans';-inkscape-font-specification:'Open Sans';letter-spacing:0;word-spacing:0;display:inline;fill:#000;fill-opacity:1;stroke:none;stroke-width:.26458335px;stroke-linecap:butt;stroke-linejoin:miter;stroke-opacity:1" id="text4192-1-4-71-1-3-7-5-0-0-1-7-5-4-4-5-1-1-6" x="105.921" y="263.411" xml:space="preserve"><tspan id="tspan4513-0-6-9-0-3" x="105.921" y="263.411" style="font-style:normal;font-variant:normal;font-weight:500;font-stretch:normal;font-size:8.46666718px;font-family:'Source Code Pro';-inkscape-font-specification:'Source Code Pro Medium';text-align:center;text-anchor:middle;fill:#000;fill-opacity:1;stroke-width:.26458335px">git commit</tspan></text><path id="rect4622-4-8" d="m 67.468757,261.28132 0,-6.61459 2.645834,0 2.645834,0 0,6.61459 3.96875,0 -6.614584,6.61458 -6.614583,-6.61458 z" style="display:inline;opacity:1;fill:#34495e;fill-opacity:1;fill-rule:nonzero;stroke:none;stroke-width:.0774383;stroke-linecap:butt;stroke-linejoin:miter;stroke-miterlimit:4;stroke-dasharray:none;stroke-dashoffset:0;stroke-opacity:1"/><path id="rect4622-45-3" d="m 138.90625,261.28134 0,-6.61459 2.64584,0 2.64583,0 0,6.61459 3.96875,0 -6.61458,6.61458 -6.61459,-6.61458 z" style="display:inline;opacity:1;fill:#34495e;fill-opacity:1;fill-rule:nonzero;stroke:none;stroke-width:.0774383;stroke-linecap:butt;stroke-linejoin:miter;stroke-miterlimit:4;stroke-dasharray:none;stroke-dashoffset:0;stroke-opacity:1"/></g></svg>