<svg xmlns="http://www.w3.org/2000/svg" xmlns:svg="http://www.w3.org/2000/svg" id="svg2" width="380" height="380" version="1.1" viewBox="0 0 100.542 100.542"><defs id="defs4"><marker id="TriangleInS" orient="auto" refX="0" refY="0" style="overflow:visible"><path id="path4570" d="m 5.77,0 -8.65,5 0,-10 8.65,5 z" transform="scale(-0.2)" style="fill-rule:evenodd;stroke:#000;stroke-width:1.00000003pt"/></marker><marker id="TriangleOutS" orient="auto" refX="0" refY="0" style="overflow:visible"><path id="path4579" d="m 5.77,0 -8.65,5 0,-10 8.65,5 z" transform="scale(0.2)" style="fill:#000;fill-opacity:1;fill-rule:evenodd;stroke:#000;stroke-width:1.00000003pt;stroke-opacity:1"/></marker><marker id="TriangleOutM" orient="auto" refX="0" refY="0" style="overflow:visible"><path id="path4576" d="m 5.77,0 -8.65,5 0,-10 8.65,5 z" transform="scale(0.4)" style="fill:#000;fill-opacity:1;fill-rule:evenodd;stroke:#000;stroke-width:1.00000003pt;stroke-opacity:1"/></marker><marker style="overflow:visible" id="marker8188" orient="auto" refX="0" refY="0"><path style="fill:#000;fill-opacity:1;fill-rule:evenodd;stroke:#000;stroke-width:1.00000003pt;stroke-opacity:1" id="path8190" d="m 5.77,0 -8.65,5 0,-10 8.65,5 z" transform="scale(-0.2)"/></marker><marker id="marker7890" orient="auto" refX="0" refY="0" style="overflow:visible"><path id="path7892" d="M 8.7185878,4.0337352 -2.2072895,0.01601326 8.7185884,-4.0017078 c -1.7454984,2.3720609 -1.7354408,5.6174519 -6e-7,8.035443 z" transform="matrix(-0.3,0,0,-0.3,0.69,0)" style="fill:#000;fill-opacity:1;fill-rule:evenodd;stroke:#000;stroke-width:.625;stroke-linejoin:round;stroke-opacity:1"/></marker><marker id="marker7748" orient="auto" refX="0" refY="0" style="overflow:visible"><path id="path7750" d="M 8.7185878,4.0337352 -2.2072895,0.01601326 8.7185884,-4.0017078 c -1.7454984,2.3720609 -1.7354408,5.6174519 -6e-7,8.035443 z" transform="matrix(-0.3,0,0,-0.3,0.69,0)" style="fill:#000;fill-opacity:1;fill-rule:evenodd;stroke:#000;stroke-width:.625;stroke-linejoin:round;stroke-opacity:1"/></marker><marker id="Arrow2Send" orient="auto" refX="0" refY="0" style="overflow:visible"><path id="path4464" d="M 8.7185878,4.0337352 -2.2072895,0.01601326 8.7185884,-4.0017078 c -1.7454984,2.3720609 -1.7354408,5.6174519 -6e-7,8.035443 z" transform="matrix(-0.3,0,0,-0.3,0.69,0)" style="fill:#000;fill-opacity:1;fill-rule:evenodd;stroke:#000;stroke-width:.625;stroke-linejoin:round;stroke-opacity:1"/></marker><marker style="overflow:visible" id="marker7472" orient="auto" refX="0" refY="0"><path style="fill:#000;fill-opacity:1;fill-rule:evenodd;stroke:#000;stroke-width:1.00000003pt;stroke-opacity:1" id="path7474" d="m 5.77,0 -8.65,5 0,-10 8.65,5 z" transform="scale(-0.2)"/></marker><marker style="overflow:visible" id="marker7198" orient="auto" refX="0" refY="0"><path style="fill:#000;fill-opacity:1;fill-rule:evenodd;stroke:#000;stroke-width:1.00000003pt;stroke-opacity:1" id="path7200" d="m 5.77,0 -8.65,5 0,-10 8.65,5 z" transform="scale(-0.2)"/></marker><marker id="marker6718" orient="auto" refX="0" refY="0" style="overflow:visible"><path id="path6720" d="M 0,0 5,-5 -12.5,0 5,5 0,0 Z" transform="matrix(0.8,0,0,0.8,10,0)" style="fill:#000;fill-opacity:1;fill-rule:evenodd;stroke:#000;stroke-width:1.00000003pt;stroke-opacity:1"/></marker><marker id="EmptyTriangleInS" orient="auto" refX="0" refY="0" style="overflow:visible"><path id="path4588" d="m 5.77,0 -8.65,5 0,-10 8.65,5 z" transform="matrix(-0.2,0,0,-0.2,0.6,0)" style="fill:#fff;fill-rule:evenodd;stroke:#000;stroke-width:1.00000003pt;stroke-opacity:1"/></marker><marker id="marker5536" orient="auto" refX="0" refY="0" style="overflow:visible"><path id="path5538" d="M 0,0 5,-5 -12.5,0 5,5 0,0 Z" transform="matrix(0.2,0,0,0.2,1.2,0)" style="fill:#000;fill-opacity:1;fill-rule:evenodd;stroke:#000;stroke-width:1.00000003pt;stroke-opacity:1"/></marker><marker id="Arrow1Mstart" orient="auto" refX="0" refY="0" style="overflow:visible"><path id="path4437" d="M 0,0 5,-5 -12.5,0 5,5 0,0 Z" transform="matrix(0.4,0,0,0.4,4,0)" style="fill:#000;fill-opacity:1;fill-rule:evenodd;stroke:#000;stroke-width:1.00000003pt;stroke-opacity:1"/></marker><marker id="marker5158" orient="auto-start-reverse" refX="5" refY="3"><path id="path5160" d="M 10,3 0,6 0,0 Z" style="fill:context-stroke;stroke:#000;stroke-opacity:1"/></marker><marker id="ExperimentalArrow" orient="auto-start-reverse" refX="5" refY="3"><path id="path4684" d="M 10,3 0,6 0,0 Z" style="fill:context-stroke;stroke:#007ba7;stroke-opacity:1"/></marker><marker id="marker4970" orient="auto" refX="0" refY="0" style="overflow:visible"><path id="path4972" d="M 0,0 5,-5 -12.5,0 5,5 0,0 Z" transform="matrix(0.8,0,0,0.8,10,0)" style="fill:#007ba7;fill-opacity:1;fill-rule:evenodd;stroke:#007ba7;stroke-width:1.00000003pt;stroke-opacity:1"/></marker><marker id="Arrow1Send" orient="auto" refX="0" refY="0" style="overflow:visible"><path id="path4446" d="M 0,0 5,-5 -12.5,0 5,5 0,0 Z" transform="matrix(-0.2,0,0,-0.2,-1.2,0)" style="fill:#000;fill-opacity:1;fill-rule:evenodd;stroke:#000;stroke-width:1.00000003pt;stroke-opacity:1"/></marker><marker id="Arrow2Lstart" orient="auto" refX="0" refY="0" style="overflow:visible"><path id="path4449" d="M 8.7185878,4.0337352 -2.2072895,0.01601326 8.7185884,-4.0017078 c -1.7454984,2.3720609 -1.7354408,5.6174519 -6e-7,8.035443 z" transform="matrix(1.1,0,0,1.1,1.1,0)" style="fill:#007ba7;fill-opacity:1;fill-rule:evenodd;stroke:#007ba7;stroke-width:.625;stroke-linejoin:round;stroke-opacity:1"/></marker><marker id="marker4776" orient="auto" refX="0" refY="0" style="overflow:visible"><path id="path4778" d="M 0,0 5,-5 -12.5,0 5,5 0,0 Z" transform="matrix(0.8,0,0,0.8,10,0)" style="fill:#007ba7;fill-opacity:1;fill-rule:evenodd;stroke:#007ba7;stroke-width:1.00000003pt;stroke-opacity:1"/></marker><marker id="marker4748" orient="auto" refX="0" refY="0" style="overflow:visible"><path id="path4750" d="M 0,0 5,-5 -12.5,0 5,5 0,0 Z" transform="matrix(0.8,0,0,0.8,10,0)" style="fill:#007ba7;fill-opacity:1;fill-rule:evenodd;stroke:#007ba7;stroke-width:1.00000003pt;stroke-opacity:1"/></marker><marker id="Arrow1Sstart" orient="auto" refX="0" refY="0" style="overflow:visible"><path id="path4443" d="M 0,0 5,-5 -12.5,0 5,5 0,0 Z" transform="matrix(0.2,0,0,0.2,1.2,0)" style="fill:#007ba7;fill-opacity:1;fill-rule:evenodd;stroke:#007ba7;stroke-width:1.00000003pt;stroke-opacity:1"/></marker><marker id="Arrow1Lstart" orient="auto" refX="0" refY="0" style="overflow:visible"><path id="path4431" d="M 0,0 5,-5 -12.5,0 5,5 0,0 Z" transform="matrix(0.8,0,0,0.8,10,0)" style="fill:#007ba7;fill-opacity:1;fill-rule:evenodd;stroke:#007ba7;stroke-width:1.00000003pt;stroke-opacity:1"/></marker></defs><metadata id="metadata7"/><g id="layer2" transform="translate(0,-322.79168)" style="display:inline"><rect style="display:inline;opacity:1;fill:#fff;fill-opacity:1;fill-rule:nonzero;stroke:none;stroke-width:10.16922569;stroke-linecap:butt;stroke-linejoin:miter;stroke-miterlimit:4;stroke-dasharray:none;stroke-dashoffset:0;stroke-opacity:1" id="rect10940" width="100.542" height="100.542" x="0" y="322.792"/></g><g id="layer1" transform="translate(0,-196.45832)" style="display:inline"><flowRoot id="flowRoot10127" transform="translate(8.3333332e-7,103.18756)" xml:space="preserve" style="font-style:normal;font-weight:400;font-size:20px;line-height:125%;font-family:Sans;letter-spacing:0;word-spacing:0;fill:#000;fill-opacity:1;stroke:none;stroke-width:1px;stroke-linecap:butt;stroke-linejoin:miter;stroke-opacity:1"><flowRegion id="flowRegion10129"><rect id="rect10131" width="142.562" height="254.69" x="217.443" y="920.309"/></flowRegion><flowPara id="flowPara10133"/></flowRoot><g id="g4539" transform="translate(-105.83334,41.671827)"><g style="fill:#3498db" id="g9845" transform="translate(1.1654938,187.00088)"><path style="color:#000;font-style:normal;font-variant:normal;font-weight:400;font-stretch:normal;font-size:medium;line-height:normal;font-family:sans-serif;text-indent:0;text-align:start;text-decoration:none;text-decoration-line:none;text-decoration-style:solid;text-decoration-color:#000;letter-spacing:normal;word-spacing:normal;text-transform:none;direction:ltr;block-progression:tb;writing-mode:lr-tb;baseline-shift:baseline;text-anchor:start;white-space:normal;shape-padding:0;clip-rule:nonzero;display:inline;overflow:visible;visibility:visible;opacity:1;isolation:auto;mix-blend-mode:normal;color-interpolation:sRGB;color-interpolation-filters:linearRGB;solid-color:#000;solid-opacity:1;fill:#3498db;fill-opacity:1;fill-rule:nonzero;stroke:none;stroke-width:1.28150487;stroke-linecap:butt;stroke-linejoin:miter;stroke-miterlimit:10;stroke-dasharray:none;stroke-dashoffset:0;stroke-opacity:1;color-rendering:auto;image-rendering:auto;shape-rendering:auto;text-rendering:auto;enable-background:accumulate" id="rect4274-0" d="m 107.31368,-31.552955 0,14.552084 95.25,0 0,-14.552084 z m 1.32292,1.322917 92.60416,0 0,11.90625 -92.60416,0 z"/><text id="text4192-1-4-71-1-3-4-5-3" x="154.913" y="-21.968" xml:space="preserve" style="font-style:normal;font-variant:normal;font-weight:400;font-stretch:normal;font-size:4.93888903px;line-height:125%;font-family:'Open Sans';-inkscape-font-specification:'Open Sans';letter-spacing:0;word-spacing:0;display:inline;fill:#3498db;fill-opacity:1;stroke:none;stroke-width:.26458335px;stroke-linecap:butt;stroke-linejoin:miter;stroke-opacity:1"><tspan style="font-style:normal;font-variant:normal;font-weight:500;font-stretch:normal;font-size:7.05555582px;font-family:'Source Code Pro';-inkscape-font-specification:'Source Code Pro Medium';text-align:center;text-anchor:middle;fill:#3498db;stroke-width:.26458335px" id="tspan4354" x="154.913" y="-21.968">CLI App</tspan></text></g><g id="g4402" transform="translate(0,-7.9374766)"><text id="text4192-1-4-71-1-3-7-5-0" x="156.071" y="224.719" xml:space="preserve" style="font-style:normal;font-variant:normal;font-weight:400;font-stretch:normal;font-size:4.93888903px;line-height:125%;font-family:'Open Sans';-inkscape-font-specification:'Open Sans';letter-spacing:0;word-spacing:0;display:inline;fill:#2ecc71;fill-opacity:1;stroke:none;stroke-width:.26458335px;stroke-linecap:butt;stroke-linejoin:miter;stroke-opacity:1"><tspan id="tspan4682-24-4" x="156.071" y="224.719" style="font-style:normal;font-variant:normal;font-weight:500;font-stretch:normal;font-size:7.05555582px;font-family:'Source Code Pro';-inkscape-font-specification:'Source Code Pro Medium';text-align:center;text-anchor:middle;fill:#2ecc71;stroke-width:.26458335px">Node.js</tspan></text><path style="display:inline;opacity:1;fill:#2ecc71;fill-opacity:1;fill-rule:nonzero;stroke:none;stroke-width:1.77487898;stroke-linecap:butt;stroke-linejoin:miter;stroke-miterlimit:4;stroke-dasharray:none;stroke-dashoffset:0;stroke-opacity:1" id="rect4832-5-2-2" d="m 121.70835,214.97916 c -7.32896,0 -13.22917,3.54015 -13.22917,7.93752 0,4.39737 5.90021,7.93749 13.22917,7.93749 l 68.79166,0 c 7.32896,0 13.22917,-3.54012 13.22917,-7.93749 0,-4.39737 -5.90021,-7.93752 -13.22917,-7.93752 z m 1.32291,1.32292 66.14583,0 c 7.32896,0 13.22917,2.95012 13.22917,6.6146 0,3.66447 -5.90021,6.61457 -13.22917,6.61457 l -66.14583,0 c -7.32896,0 -13.22916,-2.9501 -13.22916,-6.61457 0,-3.66448 5.9002,-6.6146 13.22916,-6.6146 z"/></g><g style="fill:#e74c3c" id="g10195" transform="translate(98.61781,26.879911)"><g id="g4623" transform="translate(63.575847,-108.21754)" style="fill:#e74c3c;fill-opacity:1"><path id="rect4458-3" d="m -203.01562,862.41797 0,60.00003 c 0,13.8071 80.58874,25 179.999995,25 99.411257,0 180.000005,-11.1929 180.000005,-25 l 0,-60.00003 z m 5,5 350,0 c -2e-5,31.12501 0,22.24995 0,53.37503 -2.49151,5.4477 -10.69545,5.955 -15.92188,8.1445 -42.243628,10.0068 -85.918603,11.6536 -129.1445312,13.1055 -57.9316658,0.9317 -116.2828188,-0.01 -173.5351588,-9.6856 -10.59938,-2.5807 -23.00759,-3.4922 -31.39843,-10.8125 z" transform="matrix(0.26458334,0,0,0.26458334,0,85.333342)" style="display:inline;opacity:1;fill:#e74c3c;fill-opacity:1;fill-rule:nonzero;stroke:none;stroke-width:4.6187396;stroke-linecap:round;stroke-linejoin:round;stroke-miterlimit:10;stroke-dasharray:9.23747925,9.23747925;stroke-dashoffset:0;stroke-opacity:1"/><ellipse id="path4239" cx="-6.089" cy="313.515" rx="47.625" ry="6.615" style="opacity:1;fill:#e74c3c;fill-opacity:1;fill-rule:nonzero;stroke:none;stroke-width:1.0224303;stroke-linecap:round;stroke-linejoin:round;stroke-miterlimit:10;stroke-dasharray:2.04486052,2.04486052;stroke-dashoffset:0;stroke-opacity:1"/></g><text style="font-style:normal;font-variant:normal;font-weight:400;font-stretch:normal;font-size:4.93888903px;line-height:125%;font-family:'Open Sans';-inkscape-font-specification:'Open Sans';letter-spacing:0;word-spacing:0;display:inline;fill:#e74c3c;fill-opacity:1;stroke:none;stroke-width:.26458335px;stroke-linecap:butt;stroke-linejoin:miter;stroke-opacity:1" id="text4192-1-4-71-1-3" x="57.485" y="219.81" xml:space="preserve"><tspan style="font-style:normal;font-variant:normal;font-weight:500;font-stretch:normal;font-size:7.05555582px;font-family:'Source Code Pro';-inkscape-font-specification:'Source Code Pro Medium';text-align:center;text-anchor:middle;fill:#e74c3c;stroke-width:.26458335px" id="tspan4259" x="57.485" y="219.81">Database (MongoDB)</tspan></text></g><path id="rect4274-0-9" d="m 108.47917,172.64584 0,31.75001 95.25,0 0,-31.75001 z m 1.32292,1.32292 92.60416,0 0,29.10417 -92.60416,0 z" style="color:#000;font-style:normal;font-variant:normal;font-weight:400;font-stretch:normal;font-size:medium;line-height:normal;font-family:sans-serif;text-indent:0;text-align:start;text-decoration:none;text-decoration-line:none;text-decoration-style:solid;text-decoration-color:#000;letter-spacing:normal;word-spacing:normal;text-transform:none;direction:ltr;block-progression:tb;writing-mode:lr-tb;baseline-shift:baseline;text-anchor:start;white-space:normal;shape-padding:0;clip-rule:nonzero;display:inline;overflow:visible;visibility:visible;opacity:1;isolation:auto;mix-blend-mode:normal;color-interpolation:sRGB;color-interpolation-filters:linearRGB;solid-color:#000;solid-opacity:1;fill:#f39c12;fill-opacity:1;fill-rule:nonzero;stroke:none;stroke-width:1.28150487;stroke-linecap:butt;stroke-linejoin:miter;stroke-miterlimit:10;stroke-dasharray:none;stroke-dashoffset:0;stroke-opacity:1;color-rendering:auto;image-rendering:auto;shape-rendering:auto;text-rendering:auto;enable-background:accumulate"/><text style="font-style:normal;font-variant:normal;font-weight:400;font-stretch:normal;font-size:4.93888903px;line-height:125%;font-family:'Open Sans';-inkscape-font-specification:'Open Sans';letter-spacing:0;word-spacing:0;display:inline;fill:#f39c12;fill-opacity:1;stroke:none;stroke-width:.26458335px;stroke-linecap:butt;stroke-linejoin:miter;stroke-opacity:1" id="text4192-1-4-71-1-3-4-5-3-7" x="156.085" y="181.426" xml:space="preserve"><tspan id="tspan4354-9" x="156.085" y="181.426" style="font-style:normal;font-variant:normal;font-weight:500;font-stretch:normal;font-size:7.05555582px;font-family:'Source Code Pro';-inkscape-font-specification:'Source Code Pro Medium';text-align:center;text-anchor:middle;fill:#f39c12;stroke-width:.26458335px">Smart Packages</tspan><tspan id="tspan4398" x="156.085" y="190.246" style="font-style:normal;font-variant:normal;font-weight:500;font-stretch:normal;font-size:7.05555582px;font-family:'Source Code Pro';-inkscape-font-specification:'Source Code Pro Medium';text-align:center;text-anchor:middle;fill:#f39c12;stroke-width:.26458335px">(DDP, Deps, Blaze,</tspan><tspan id="tspan4400" x="156.085" y="199.065" style="font-style:normal;font-variant:normal;font-weight:500;font-stretch:normal;font-size:7.05555582px;font-family:'Source Code Pro';-inkscape-font-specification:'Source Code Pro Medium';text-align:center;text-anchor:middle;fill:#f39c12;stroke-width:.26458335px">Minimongo, ...)</tspan></text></g></g></svg>