<svg xmlns="http://www.w3.org/2000/svg" xmlns:svg="http://www.w3.org/2000/svg" id="svg2" width="800" height="800" version="1.1" viewBox="0 0 211.667 211.667"><defs id="defs4"><marker id="TriangleInS" orient="auto" refX="0" refY="0" style="overflow:visible"><path id="path4570" d="m 5.77,0 -8.65,5 0,-10 8.65,5 z" transform="scale(-0.2)" style="fill-rule:evenodd;stroke:#000;stroke-width:1.00000003pt"/></marker><marker id="TriangleOutS" orient="auto" refX="0" refY="0" style="overflow:visible"><path id="path4579" d="m 5.77,0 -8.65,5 0,-10 8.65,5 z" transform="scale(0.2)" style="fill:#000;fill-opacity:1;fill-rule:evenodd;stroke:#000;stroke-width:1.00000003pt;stroke-opacity:1"/></marker><marker id="TriangleOutM" orient="auto" refX="0" refY="0" style="overflow:visible"><path id="path4576" d="m 5.77,0 -8.65,5 0,-10 8.65,5 z" transform="scale(0.4)" style="fill:#000;fill-opacity:1;fill-rule:evenodd;stroke:#000;stroke-width:1.00000003pt;stroke-opacity:1"/></marker><marker style="overflow:visible" id="marker8188" orient="auto" refX="0" refY="0"><path style="fill:#000;fill-opacity:1;fill-rule:evenodd;stroke:#000;stroke-width:1.00000003pt;stroke-opacity:1" id="path8190" d="m 5.77,0 -8.65,5 0,-10 8.65,5 z" transform="scale(-0.2)"/></marker><marker id="marker7890" orient="auto" refX="0" refY="0" style="overflow:visible"><path id="path7892" d="M 8.7185878,4.0337352 -2.2072895,0.01601326 8.7185884,-4.0017078 c -1.7454984,2.3720609 -1.7354408,5.6174519 -6e-7,8.035443 z" transform="matrix(-0.3,0,0,-0.3,0.69,0)" style="fill:#000;fill-opacity:1;fill-rule:evenodd;stroke:#000;stroke-width:.625;stroke-linejoin:round;stroke-opacity:1"/></marker><marker id="marker7748" orient="auto" refX="0" refY="0" style="overflow:visible"><path id="path7750" d="M 8.7185878,4.0337352 -2.2072895,0.01601326 8.7185884,-4.0017078 c -1.7454984,2.3720609 -1.7354408,5.6174519 -6e-7,8.035443 z" transform="matrix(-0.3,0,0,-0.3,0.69,0)" style="fill:#000;fill-opacity:1;fill-rule:evenodd;stroke:#000;stroke-width:.625;stroke-linejoin:round;stroke-opacity:1"/></marker><marker id="Arrow2Send" orient="auto" refX="0" refY="0" style="overflow:visible"><path id="path4464" d="M 8.7185878,4.0337352 -2.2072895,0.01601326 8.7185884,-4.0017078 c -1.7454984,2.3720609 -1.7354408,5.6174519 -6e-7,8.035443 z" transform="matrix(-0.3,0,0,-0.3,0.69,0)" style="fill:#000;fill-opacity:1;fill-rule:evenodd;stroke:#000;stroke-width:.625;stroke-linejoin:round;stroke-opacity:1"/></marker><marker style="overflow:visible" id="marker7472" orient="auto" refX="0" refY="0"><path style="fill:#000;fill-opacity:1;fill-rule:evenodd;stroke:#000;stroke-width:1.00000003pt;stroke-opacity:1" id="path7474" d="m 5.77,0 -8.65,5 0,-10 8.65,5 z" transform="scale(-0.2)"/></marker><marker style="overflow:visible" id="marker7198" orient="auto" refX="0" refY="0"><path style="fill:#000;fill-opacity:1;fill-rule:evenodd;stroke:#000;stroke-width:1.00000003pt;stroke-opacity:1" id="path7200" d="m 5.77,0 -8.65,5 0,-10 8.65,5 z" transform="scale(-0.2)"/></marker><marker id="marker6718" orient="auto" refX="0" refY="0" style="overflow:visible"><path id="path6720" d="M 0,0 5,-5 -12.5,0 5,5 0,0 Z" transform="matrix(0.8,0,0,0.8,10,0)" style="fill:#000;fill-opacity:1;fill-rule:evenodd;stroke:#000;stroke-width:1.00000003pt;stroke-opacity:1"/></marker><marker id="EmptyTriangleInS" orient="auto" refX="0" refY="0" style="overflow:visible"><path id="path4588" d="m 5.77,0 -8.65,5 0,-10 8.65,5 z" transform="matrix(-0.2,0,0,-0.2,0.6,0)" style="fill:#fff;fill-rule:evenodd;stroke:#000;stroke-width:1.00000003pt;stroke-opacity:1"/></marker><marker id="marker5536" orient="auto" refX="0" refY="0" style="overflow:visible"><path id="path5538" d="M 0,0 5,-5 -12.5,0 5,5 0,0 Z" transform="matrix(0.2,0,0,0.2,1.2,0)" style="fill:#000;fill-opacity:1;fill-rule:evenodd;stroke:#000;stroke-width:1.00000003pt;stroke-opacity:1"/></marker><marker id="Arrow1Mstart" orient="auto" refX="0" refY="0" style="overflow:visible"><path id="path4437" d="M 0,0 5,-5 -12.5,0 5,5 0,0 Z" transform="matrix(0.4,0,0,0.4,4,0)" style="fill:#000;fill-opacity:1;fill-rule:evenodd;stroke:#000;stroke-width:1.00000003pt;stroke-opacity:1"/></marker><marker id="marker5158" orient="auto-start-reverse" refX="5" refY="3"><path id="path5160" d="M 10,3 0,6 0,0 Z" style="fill:context-stroke;stroke:#000;stroke-opacity:1"/></marker><marker id="ExperimentalArrow" orient="auto-start-reverse" refX="5" refY="3"><path id="path4684" d="M 10,3 0,6 0,0 Z" style="fill:context-stroke;stroke:#007ba7;stroke-opacity:1"/></marker><marker id="marker4970" orient="auto" refX="0" refY="0" style="overflow:visible"><path id="path4972" d="M 0,0 5,-5 -12.5,0 5,5 0,0 Z" transform="matrix(0.8,0,0,0.8,10,0)" style="fill:#007ba7;fill-opacity:1;fill-rule:evenodd;stroke:#007ba7;stroke-width:1.00000003pt;stroke-opacity:1"/></marker><marker id="Arrow1Send" orient="auto" refX="0" refY="0" style="overflow:visible"><path id="path4446" d="M 0,0 5,-5 -12.5,0 5,5 0,0 Z" transform="matrix(-0.2,0,0,-0.2,-1.2,0)" style="fill:#000;fill-opacity:1;fill-rule:evenodd;stroke:#000;stroke-width:1.00000003pt;stroke-opacity:1"/></marker><marker id="Arrow2Lstart" orient="auto" refX="0" refY="0" style="overflow:visible"><path id="path4449" d="M 8.7185878,4.0337352 -2.2072895,0.01601326 8.7185884,-4.0017078 c -1.7454984,2.3720609 -1.7354408,5.6174519 -6e-7,8.035443 z" transform="matrix(1.1,0,0,1.1,1.1,0)" style="fill:#007ba7;fill-opacity:1;fill-rule:evenodd;stroke:#007ba7;stroke-width:.625;stroke-linejoin:round;stroke-opacity:1"/></marker><marker id="marker4776" orient="auto" refX="0" refY="0" style="overflow:visible"><path id="path4778" d="M 0,0 5,-5 -12.5,0 5,5 0,0 Z" transform="matrix(0.8,0,0,0.8,10,0)" style="fill:#007ba7;fill-opacity:1;fill-rule:evenodd;stroke:#007ba7;stroke-width:1.00000003pt;stroke-opacity:1"/></marker><marker id="marker4748" orient="auto" refX="0" refY="0" style="overflow:visible"><path id="path4750" d="M 0,0 5,-5 -12.5,0 5,5 0,0 Z" transform="matrix(0.8,0,0,0.8,10,0)" style="fill:#007ba7;fill-opacity:1;fill-rule:evenodd;stroke:#007ba7;stroke-width:1.00000003pt;stroke-opacity:1"/></marker><marker id="Arrow1Sstart" orient="auto" refX="0" refY="0" style="overflow:visible"><path id="path4443" d="M 0,0 5,-5 -12.5,0 5,5 0,0 Z" transform="matrix(0.2,0,0,0.2,1.2,0)" style="fill:#007ba7;fill-opacity:1;fill-rule:evenodd;stroke:#007ba7;stroke-width:1.00000003pt;stroke-opacity:1"/></marker><marker id="Arrow1Lstart" orient="auto" refX="0" refY="0" style="overflow:visible"><path id="path4431" d="M 0,0 5,-5 -12.5,0 5,5 0,0 Z" transform="matrix(0.8,0,0,0.8,10,0)" style="fill:#007ba7;fill-opacity:1;fill-rule:evenodd;stroke:#007ba7;stroke-width:1.00000003pt;stroke-opacity:1"/></marker></defs><metadata id="metadata7"/><g id="layer2" transform="translate(0,-211.66668)" style="display:inline"><rect style="display:inline;opacity:1;fill:#fff;fill-opacity:1;fill-rule:nonzero;stroke:none;stroke-width:21.40888977;stroke-linecap:butt;stroke-linejoin:miter;stroke-miterlimit:4;stroke-dasharray:none;stroke-dashoffset:0;stroke-opacity:1" id="rect10940" width="211.667" height="211.667" x="0" y="211.667"/></g><g id="layer4"><path style="opacity:1;fill:#34495e;fill-opacity:1;fill-rule:nonzero;stroke:none;stroke-width:2.48618865;stroke-linecap:butt;stroke-linejoin:miter;stroke-miterlimit:4;stroke-dasharray:none;stroke-dashoffset:0;stroke-opacity:1" id="rect4596" d="M 105.83334,13.229167 A 92.604172,92.604172 0 0 0 40.393401,40.393401 l 9.348267,9.348267 A 79.375002,79.375002 0 0 1 105.83334,26.458334 l 6.61458,-6.614584 -6.61458,-6.614583 z"/><path style="display:inline;opacity:1;fill:#9b59b6;fill-opacity:1;fill-rule:nonzero;stroke:none;stroke-width:2.48618841;stroke-linecap:butt;stroke-linejoin:miter;stroke-miterlimit:4;stroke-dasharray:none;stroke-dashoffset:0;stroke-opacity:1" id="rect4596-7-5-4-6-5-0-3" d="M 40.352307,40.352298 A 92.604171,92.604171 0 0 0 13.287309,105.83335 l 13.220429,-10e-6 A 79.375001,79.375001 0 0 1 49.706736,49.706738 l -10e-7,-9.35443 -9.354428,-1e-5 z"/><path style="display:inline;opacity:1;fill:#3498db;fill-opacity:1;fill-rule:nonzero;stroke:none;stroke-width:2.48618841;stroke-linecap:butt;stroke-linejoin:miter;stroke-miterlimit:4;stroke-dasharray:none;stroke-dashoffset:0;stroke-opacity:1" id="rect4596-7-5-4-6-5-0" d="m 13.229167,105.83333 a 92.604171,92.604171 0 0 0 27.164253,65.43994 l 9.348249,-9.34826 A 79.375001,79.375001 0 0 1 26.458338,105.83334 l -6.614582,-6.614582 -6.614589,6.614572 z"/><path style="display:inline;opacity:1;fill:#1abc9c;fill-opacity:1;fill-rule:nonzero;stroke:none;stroke-width:2.48618841;stroke-linecap:butt;stroke-linejoin:miter;stroke-miterlimit:4;stroke-dasharray:none;stroke-dashoffset:0;stroke-opacity:1" id="rect4596-7-5-4-6-5" d="m 40.352295,171.31437 a 92.604171,92.604171 0 0 0 65.481055,27.065 l -10e-6,-13.22043 a 79.375001,79.375001 0 0 1 -56.126602,-23.199 l -9.354431,0 -1.2e-5,9.35443 z"/><path style="display:inline;opacity:1;fill:#2ecc71;fill-opacity:1;fill-rule:nonzero;stroke:none;stroke-width:2.48618841;stroke-linecap:butt;stroke-linejoin:miter;stroke-miterlimit:4;stroke-dasharray:none;stroke-dashoffset:0;stroke-opacity:1" id="rect4596-7-5-4-6" d="m 105.83333,198.43751 a 92.604171,92.604171 0 0 0 65.43994,-27.16425 l -9.34826,-9.34825 a 79.375001,79.375001 0 0 1 -56.09167,23.28333 l -6.614583,6.61458 6.614573,6.61459 z"/><path style="display:inline;opacity:1;fill:#f1c40f;fill-opacity:1;fill-rule:nonzero;stroke:none;stroke-width:2.48618841;stroke-linecap:butt;stroke-linejoin:miter;stroke-miterlimit:4;stroke-dasharray:none;stroke-dashoffset:0;stroke-opacity:1" id="rect4596-7-5-4" d="m 171.31437,171.31438 a 92.604171,92.604171 0 0 0 27.065,-65.48105 l -13.22043,1e-5 a 79.375001,79.375001 0 0 1 -23.199,56.1266 l 0,9.35443 9.35443,1e-5 z"/><path style="display:inline;opacity:1;fill:#f39c12;fill-opacity:1;fill-rule:nonzero;stroke:none;stroke-width:2.48618841;stroke-linecap:butt;stroke-linejoin:miter;stroke-miterlimit:4;stroke-dasharray:none;stroke-dashoffset:0;stroke-opacity:1" id="rect4596-7-5" d="M 198.43751,105.83334 A 92.604171,92.604171 0 0 0 171.27326,40.393398 l -9.34825,9.34827 a 79.375001,79.375001 0 0 1 23.28333,56.091672 l 6.61458,6.61458 6.61459,-6.61458 z"/><path style="display:inline;opacity:1;fill:#e74c3c;fill-opacity:1;fill-rule:nonzero;stroke:none;stroke-width:2.48618865;stroke-linecap:butt;stroke-linejoin:miter;stroke-miterlimit:4;stroke-dasharray:none;stroke-dashoffset:0;stroke-opacity:1" id="rect4596-7-6" d="m 105.8946,13.289878 6.5536,6.5536 -6.61458,6.61459 0,0.0496 a 79.375002,79.375002 0 0 1 56.12629,23.1991 l 9.35447,0 0,-9.35447 A 92.604172,92.604172 0 0 0 105.8946,13.289878 Z"/></g><g id="layer3" style="display:inline"><rect style="display:inline;opacity:1;fill:#ecf0f1;fill-opacity:.78431373;fill-rule:nonzero;stroke:none;stroke-width:.05291667;stroke-linecap:butt;stroke-linejoin:miter;stroke-miterlimit:4;stroke-dasharray:none;stroke-dashoffset:0;stroke-opacity:1" id="rect4565" width="66.146" height="21.167" x="109.788" y="11.618"/><rect style="display:inline;opacity:1;fill:#ecf0f1;fill-opacity:.78431373;fill-rule:nonzero;stroke:none;stroke-width:.05291667;stroke-linecap:butt;stroke-linejoin:miter;stroke-miterlimit:4;stroke-dasharray:none;stroke-dashoffset:0;stroke-opacity:1" id="rect4565-4" width="66.146" height="21.167" x="144.462" y="65.837"/><rect style="display:inline;opacity:1;fill:#ecf0f1;fill-opacity:.78431373;fill-rule:nonzero;stroke:none;stroke-width:.05291667;stroke-linecap:butt;stroke-linejoin:miter;stroke-miterlimit:4;stroke-dasharray:none;stroke-dashoffset:0;stroke-opacity:1" id="rect4565-8" width="66.146" height="21.167" x="144.451" y="127.991"/><rect style="display:inline;opacity:1;fill:#ecf0f1;fill-opacity:.78431373;fill-rule:nonzero;stroke:none;stroke-width:.05291667;stroke-linecap:butt;stroke-linejoin:miter;stroke-miterlimit:4;stroke-dasharray:none;stroke-dashoffset:0;stroke-opacity:1" id="rect4565-7" width="66.146" height="21.167" x="108.788" y="169.598"/><rect style="display:inline;opacity:1;fill:#ecf0f1;fill-opacity:.78431373;fill-rule:nonzero;stroke:none;stroke-width:.05291667;stroke-linecap:butt;stroke-linejoin:miter;stroke-miterlimit:4;stroke-dasharray:none;stroke-dashoffset:0;stroke-opacity:1" id="rect4565-0" width="66.146" height="21.167" x="33.405" y="169.586"/><rect style="display:inline;opacity:1;fill:#ecf0f1;fill-opacity:.78431373;fill-rule:nonzero;stroke:none;stroke-width:.05291667;stroke-linecap:butt;stroke-linejoin:miter;stroke-miterlimit:4;stroke-dasharray:none;stroke-dashoffset:0;stroke-opacity:1" id="rect4565-1" width="66.146" height="21.167" x="1.058" y="124.663"/><rect style="display:inline;opacity:1;fill:#ecf0f1;fill-opacity:.78431373;fill-rule:nonzero;stroke:none;stroke-width:.05291667;stroke-linecap:butt;stroke-linejoin:miter;stroke-miterlimit:4;stroke-dasharray:none;stroke-dashoffset:0;stroke-opacity:1" id="rect4565-42" width="66.146" height="21.167" x="1.07" y="62.509"/><rect style="display:inline;opacity:1;fill:#ecf0f1;fill-opacity:.78431373;fill-rule:nonzero;stroke:none;stroke-width:.05291667;stroke-linecap:butt;stroke-linejoin:miter;stroke-miterlimit:4;stroke-dasharray:none;stroke-dashoffset:0;stroke-opacity:1" id="rect4565-5" width="66.146" height="21.167" x="33.341" y="10.812"/></g><g id="layer1" transform="translate(0,-85.333322)" style="display:inline"><flowRoot id="flowRoot10127" transform="translate(8.3333332e-7,103.18756)" xml:space="preserve" style="font-style:normal;font-weight:400;font-size:20px;line-height:125%;font-family:Sans;letter-spacing:0;word-spacing:0;fill:#000;fill-opacity:1;stroke:none;stroke-width:1px;stroke-linecap:butt;stroke-linejoin:miter;stroke-opacity:1"><flowRegion id="flowRegion10129"><rect id="rect10131" width="142.562" height="254.69" x="217.443" y="920.309"/></flowRegion><flowPara id="flowPara10133"/></flowRoot><text id="text4192-1-4-71-1-3-7-5-0-0" x="142.766" y="104.169" xml:space="preserve" style="font-style:normal;font-variant:normal;font-weight:400;font-stretch:normal;font-size:4.93888903px;line-height:125%;font-family:'Open Sans';-inkscape-font-specification:'Open Sans';letter-spacing:0;word-spacing:0;display:inline;fill:#000;fill-opacity:1;stroke:none;stroke-width:.26458335px;stroke-linecap:butt;stroke-linejoin:miter;stroke-opacity:1"><tspan style="font-style:normal;font-variant:normal;font-weight:500;font-stretch:normal;font-size:8.46666718px;font-family:'Source Code Pro';-inkscape-font-specification:'Source Code Pro Medium';text-align:center;text-anchor:middle;fill:#000;fill-opacity:1;stroke-width:.26458335px" id="tspan4404" x="142.766" y="104.169">User</tspan><tspan style="font-style:normal;font-variant:normal;font-weight:500;font-stretch:normal;font-size:8.46666718px;font-family:'Source Code Pro';-inkscape-font-specification:'Source Code Pro Medium';text-align:center;text-anchor:middle;fill:#000;fill-opacity:1;stroke-width:.26458335px" id="tspan4417" x="142.766" y="114.752">Requirements</tspan></text><text id="text4192-1-4-71-1-3-7-5-0-0-1" x="177.72" y="158.596" xml:space="preserve" style="font-style:normal;font-variant:normal;font-weight:400;font-stretch:normal;font-size:4.93888903px;line-height:125%;font-family:'Open Sans';-inkscape-font-specification:'Open Sans';letter-spacing:0;word-spacing:0;display:inline;fill:#000;fill-opacity:1;stroke:none;stroke-width:.26458335px;stroke-linecap:butt;stroke-linejoin:miter;stroke-opacity:1"><tspan style="font-style:normal;font-variant:normal;font-weight:500;font-stretch:normal;font-size:8.46666718px;font-family:'Source Code Pro';-inkscape-font-specification:'Source Code Pro Medium';text-align:center;text-anchor:middle;fill:#000;fill-opacity:1;stroke-width:.26458335px" id="tspan4417-9" x="177.72" y="158.596">Problem</tspan><tspan style="font-style:normal;font-variant:normal;font-weight:500;font-stretch:normal;font-size:8.46666718px;font-family:'Source Code Pro';-inkscape-font-specification:'Source Code Pro Medium';text-align:center;text-anchor:middle;fill:#000;fill-opacity:1;stroke-width:.26458335px" id="tspan4442" x="177.72" y="169.179">Analysis</tspan></text><text id="text4192-1-4-71-1-3-7-5-0-0-1-7" x="177.294" y="220.457" xml:space="preserve" style="font-style:normal;font-variant:normal;font-weight:400;font-stretch:normal;font-size:4.93888903px;line-height:125%;font-family:'Open Sans';-inkscape-font-specification:'Open Sans';letter-spacing:0;word-spacing:0;display:inline;fill:#000;fill-opacity:1;stroke:none;stroke-width:.26458335px;stroke-linecap:butt;stroke-linejoin:miter;stroke-opacity:1"><tspan style="font-style:normal;font-variant:normal;font-weight:500;font-stretch:normal;font-size:8.46666718px;font-family:'Source Code Pro';-inkscape-font-specification:'Source Code Pro Medium';text-align:center;text-anchor:middle;fill:#000;fill-opacity:1;stroke-width:.26458335px" id="tspan4442-0" x="177.294" y="220.457">Program</tspan><tspan style="font-style:normal;font-variant:normal;font-weight:500;font-stretch:normal;font-size:8.46666718px;font-family:'Source Code Pro';-inkscape-font-specification:'Source Code Pro Medium';text-align:center;text-anchor:middle;fill:#000;fill-opacity:1;stroke-width:.26458335px" id="tspan4467" x="177.294" y="231.04">Design</tspan></text><text id="text4192-1-4-71-1-3-7-5-0-0-1-7-5" x="141.63" y="262.945" xml:space="preserve" style="font-style:normal;font-variant:normal;font-weight:400;font-stretch:normal;font-size:4.93888903px;line-height:125%;font-family:'Open Sans';-inkscape-font-specification:'Open Sans';letter-spacing:0;word-spacing:0;display:inline;fill:#000;fill-opacity:1;stroke:none;stroke-width:.26458335px;stroke-linecap:butt;stroke-linejoin:miter;stroke-opacity:1"><tspan style="font-style:normal;font-variant:normal;font-weight:500;font-stretch:normal;font-size:8.46666718px;font-family:'Source Code Pro';-inkscape-font-specification:'Source Code Pro Medium';text-align:center;text-anchor:middle;fill:#000;fill-opacity:1;stroke-width:.26458335px" id="tspan4442-0-2" x="141.63" y="262.945">Program</tspan><tspan style="font-style:normal;font-variant:normal;font-weight:500;font-stretch:normal;font-size:8.46666718px;font-family:'Source Code Pro';-inkscape-font-specification:'Source Code Pro Medium';text-align:center;text-anchor:middle;fill:#000;fill-opacity:1;stroke-width:.26458335px" id="tspan4467-0" x="141.63" y="273.528">Code</tspan></text><text id="text4192-1-4-71-1-3-7-5-0-0-1-7-5-4" x="66.379" y="262.984" xml:space="preserve" style="font-style:normal;font-variant:normal;font-weight:400;font-stretch:normal;font-size:4.93888903px;line-height:125%;font-family:'Open Sans';-inkscape-font-specification:'Open Sans';letter-spacing:0;word-spacing:0;display:inline;fill:#000;fill-opacity:1;stroke:none;stroke-width:.26458335px;stroke-linecap:butt;stroke-linejoin:miter;stroke-opacity:1"><tspan style="font-style:normal;font-variant:normal;font-weight:500;font-stretch:normal;font-size:8.46666718px;font-family:'Source Code Pro';-inkscape-font-specification:'Source Code Pro Medium';text-align:center;text-anchor:middle;fill:#000;fill-opacity:1;stroke-width:.26458335px" id="tspan4467-0-7" x="66.379" y="262.984">System</tspan><tspan style="font-style:normal;font-variant:normal;font-weight:500;font-stretch:normal;font-size:8.46666718px;font-family:'Source Code Pro';-inkscape-font-specification:'Source Code Pro Medium';text-align:center;text-anchor:middle;fill:#000;fill-opacity:1;stroke-width:.26458335px" id="tspan4513" x="66.379" y="273.567">Test</tspan></text><text id="text4192-1-4-71-1-3-7-5-0-0-1-7-5-4-4" x="34.032" y="217.243" xml:space="preserve" style="font-style:normal;font-variant:normal;font-weight:400;font-stretch:normal;font-size:4.93888903px;line-height:125%;font-family:'Open Sans';-inkscape-font-specification:'Open Sans';letter-spacing:0;word-spacing:0;display:inline;fill:#000;fill-opacity:1;stroke:none;stroke-width:.26458335px;stroke-linecap:butt;stroke-linejoin:miter;stroke-opacity:1"><tspan style="font-style:normal;font-variant:normal;font-weight:500;font-stretch:normal;font-size:8.46666718px;font-family:'Source Code Pro';-inkscape-font-specification:'Source Code Pro Medium';text-align:center;text-anchor:middle;fill:#000;fill-opacity:1;stroke-width:.26458335px" id="tspan4467-0-7-8" x="34.032" y="217.243">System</tspan><tspan style="font-style:normal;font-variant:normal;font-weight:500;font-stretch:normal;font-size:8.46666718px;font-family:'Source Code Pro';-inkscape-font-specification:'Source Code Pro Medium';text-align:center;text-anchor:middle;fill:#000;fill-opacity:1;stroke-width:.26458335px" id="tspan4513-0" x="34.032" y="227.827">Deploy</tspan></text><text id="text4192-1-4-71-1-3-7-5-0-0-1-7-5-4-4-5" x="34.26" y="155.111" xml:space="preserve" style="font-style:normal;font-variant:normal;font-weight:400;font-stretch:normal;font-size:4.93888903px;line-height:125%;font-family:'Open Sans';-inkscape-font-specification:'Open Sans';letter-spacing:0;word-spacing:0;display:inline;fill:#000;fill-opacity:1;stroke:none;stroke-width:.26458335px;stroke-linecap:butt;stroke-linejoin:miter;stroke-opacity:1"><tspan style="font-style:normal;font-variant:normal;font-weight:500;font-stretch:normal;font-size:8.46666718px;font-family:'Source Code Pro';-inkscape-font-specification:'Source Code Pro Medium';text-align:center;text-anchor:middle;fill:#000;fill-opacity:1;stroke-width:.26458335px" id="tspan4467-0-7-8-9" x="34.26" y="155.111">System</tspan><tspan style="font-style:normal;font-variant:normal;font-weight:500;font-stretch:normal;font-size:8.46666718px;font-family:'Source Code Pro';-inkscape-font-specification:'Source Code Pro Medium';text-align:center;text-anchor:middle;fill:#000;fill-opacity:1;stroke-width:.26458335px" id="tspan4513-0-6" x="34.26" y="165.695">Operation</tspan></text><text id="text4192-1-4-71-1-3-7-5-0-0-1-7-5-4-4-5-1" x="66.34" y="104.21" xml:space="preserve" style="font-style:normal;font-variant:normal;font-weight:400;font-stretch:normal;font-size:4.93888903px;line-height:125%;font-family:'Open Sans';-inkscape-font-specification:'Open Sans';letter-spacing:0;word-spacing:0;display:inline;fill:#000;fill-opacity:1;stroke:none;stroke-width:.26458335px;stroke-linecap:butt;stroke-linejoin:miter;stroke-opacity:1"><tspan style="font-style:normal;font-variant:normal;font-weight:500;font-stretch:normal;font-size:8.46666718px;font-family:'Source Code Pro';-inkscape-font-specification:'Source Code Pro Medium';text-align:center;text-anchor:middle;fill:#000;fill-opacity:1;stroke-width:.26458335px" id="tspan4467-0-7-8-9-6" x="66.34" y="104.21">System</tspan><tspan style="font-style:normal;font-variant:normal;font-weight:500;font-stretch:normal;font-size:8.46666718px;font-family:'Source Code Pro';-inkscape-font-specification:'Source Code Pro Medium';text-align:center;text-anchor:middle;fill:#000;fill-opacity:1;stroke-width:.26458335px" id="tspan4513-0-6-9" x="66.34" y="114.793">Maintenance</tspan></text></g></svg>