<svg xmlns="http://www.w3.org/2000/svg" xmlns:svg="http://www.w3.org/2000/svg" id="svg2" width="600" height="300" version="1.1" viewBox="0 0 158.75 79.375"><defs id="defs4"><marker id="TriangleInS" orient="auto" refX="0" refY="0" style="overflow:visible"><path id="path4570" d="m 5.77,0 -8.65,5 0,-10 8.65,5 z" transform="scale(-0.2)" style="fill-rule:evenodd;stroke:#000;stroke-width:1.00000003pt"/></marker><marker id="TriangleOutS" orient="auto" refX="0" refY="0" style="overflow:visible"><path id="path4579" d="m 5.77,0 -8.65,5 0,-10 8.65,5 z" transform="scale(0.2)" style="fill:#000;fill-opacity:1;fill-rule:evenodd;stroke:#000;stroke-width:1.00000003pt;stroke-opacity:1"/></marker><marker id="TriangleOutM" orient="auto" refX="0" refY="0" style="overflow:visible"><path id="path4576" d="m 5.77,0 -8.65,5 0,-10 8.65,5 z" transform="scale(0.4)" style="fill:#000;fill-opacity:1;fill-rule:evenodd;stroke:#000;stroke-width:1.00000003pt;stroke-opacity:1"/></marker><marker style="overflow:visible" id="marker8188" orient="auto" refX="0" refY="0"><path style="fill:#000;fill-opacity:1;fill-rule:evenodd;stroke:#000;stroke-width:1.00000003pt;stroke-opacity:1" id="path8190" d="m 5.77,0 -8.65,5 0,-10 8.65,5 z" transform="scale(-0.2)"/></marker><marker id="marker7890" orient="auto" refX="0" refY="0" style="overflow:visible"><path id="path7892" d="M 8.7185878,4.0337352 -2.2072895,0.01601326 8.7185884,-4.0017078 c -1.7454984,2.3720609 -1.7354408,5.6174519 -6e-7,8.035443 z" transform="matrix(-0.3,0,0,-0.3,0.69,0)" style="fill:#000;fill-opacity:1;fill-rule:evenodd;stroke:#000;stroke-width:.625;stroke-linejoin:round;stroke-opacity:1"/></marker><marker id="marker7748" orient="auto" refX="0" refY="0" style="overflow:visible"><path id="path7750" d="M 8.7185878,4.0337352 -2.2072895,0.01601326 8.7185884,-4.0017078 c -1.7454984,2.3720609 -1.7354408,5.6174519 -6e-7,8.035443 z" transform="matrix(-0.3,0,0,-0.3,0.69,0)" style="fill:#000;fill-opacity:1;fill-rule:evenodd;stroke:#000;stroke-width:.625;stroke-linejoin:round;stroke-opacity:1"/></marker><marker id="Arrow2Send" orient="auto" refX="0" refY="0" style="overflow:visible"><path id="path4464" d="M 8.7185878,4.0337352 -2.2072895,0.01601326 8.7185884,-4.0017078 c -1.7454984,2.3720609 -1.7354408,5.6174519 -6e-7,8.035443 z" transform="matrix(-0.3,0,0,-0.3,0.69,0)" style="fill:#000;fill-opacity:1;fill-rule:evenodd;stroke:#000;stroke-width:.625;stroke-linejoin:round;stroke-opacity:1"/></marker><marker style="overflow:visible" id="marker7472" orient="auto" refX="0" refY="0"><path style="fill:#000;fill-opacity:1;fill-rule:evenodd;stroke:#000;stroke-width:1.00000003pt;stroke-opacity:1" id="path7474" d="m 5.77,0 -8.65,5 0,-10 8.65,5 z" transform="scale(-0.2)"/></marker><marker style="overflow:visible" id="marker7198" orient="auto" refX="0" refY="0"><path style="fill:#000;fill-opacity:1;fill-rule:evenodd;stroke:#000;stroke-width:1.00000003pt;stroke-opacity:1" id="path7200" d="m 5.77,0 -8.65,5 0,-10 8.65,5 z" transform="scale(-0.2)"/></marker><marker id="marker6718" orient="auto" refX="0" refY="0" style="overflow:visible"><path id="path6720" d="M 0,0 5,-5 -12.5,0 5,5 0,0 Z" transform="matrix(0.8,0,0,0.8,10,0)" style="fill:#000;fill-opacity:1;fill-rule:evenodd;stroke:#000;stroke-width:1.00000003pt;stroke-opacity:1"/></marker><marker id="EmptyTriangleInS" orient="auto" refX="0" refY="0" style="overflow:visible"><path id="path4588" d="m 5.77,0 -8.65,5 0,-10 8.65,5 z" transform="matrix(-0.2,0,0,-0.2,0.6,0)" style="fill:#fff;fill-rule:evenodd;stroke:#000;stroke-width:1.00000003pt;stroke-opacity:1"/></marker><marker id="marker5536" orient="auto" refX="0" refY="0" style="overflow:visible"><path id="path5538" d="M 0,0 5,-5 -12.5,0 5,5 0,0 Z" transform="matrix(0.2,0,0,0.2,1.2,0)" style="fill:#000;fill-opacity:1;fill-rule:evenodd;stroke:#000;stroke-width:1.00000003pt;stroke-opacity:1"/></marker><marker id="Arrow1Mstart" orient="auto" refX="0" refY="0" style="overflow:visible"><path id="path4437" d="M 0,0 5,-5 -12.5,0 5,5 0,0 Z" transform="matrix(0.4,0,0,0.4,4,0)" style="fill:#000;fill-opacity:1;fill-rule:evenodd;stroke:#000;stroke-width:1.00000003pt;stroke-opacity:1"/></marker><marker id="marker5158" orient="auto-start-reverse" refX="5" refY="3"><path id="path5160" d="M 10,3 0,6 0,0 Z" style="fill:context-stroke;stroke:#000;stroke-opacity:1"/></marker><marker id="ExperimentalArrow" orient="auto-start-reverse" refX="5" refY="3"><path id="path4684" d="M 10,3 0,6 0,0 Z" style="fill:context-stroke;stroke:#007ba7;stroke-opacity:1"/></marker><marker id="marker4970" orient="auto" refX="0" refY="0" style="overflow:visible"><path id="path4972" d="M 0,0 5,-5 -12.5,0 5,5 0,0 Z" transform="matrix(0.8,0,0,0.8,10,0)" style="fill:#007ba7;fill-opacity:1;fill-rule:evenodd;stroke:#007ba7;stroke-width:1.00000003pt;stroke-opacity:1"/></marker><marker id="Arrow1Send" orient="auto" refX="0" refY="0" style="overflow:visible"><path id="path4446" d="M 0,0 5,-5 -12.5,0 5,5 0,0 Z" transform="matrix(-0.2,0,0,-0.2,-1.2,0)" style="fill:#000;fill-opacity:1;fill-rule:evenodd;stroke:#000;stroke-width:1.00000003pt;stroke-opacity:1"/></marker><marker id="Arrow2Lstart" orient="auto" refX="0" refY="0" style="overflow:visible"><path id="path4449" d="M 8.7185878,4.0337352 -2.2072895,0.01601326 8.7185884,-4.0017078 c -1.7454984,2.3720609 -1.7354408,5.6174519 -6e-7,8.035443 z" transform="matrix(1.1,0,0,1.1,1.1,0)" style="fill:#007ba7;fill-opacity:1;fill-rule:evenodd;stroke:#007ba7;stroke-width:.625;stroke-linejoin:round;stroke-opacity:1"/></marker><marker id="marker4776" orient="auto" refX="0" refY="0" style="overflow:visible"><path id="path4778" d="M 0,0 5,-5 -12.5,0 5,5 0,0 Z" transform="matrix(0.8,0,0,0.8,10,0)" style="fill:#007ba7;fill-opacity:1;fill-rule:evenodd;stroke:#007ba7;stroke-width:1.00000003pt;stroke-opacity:1"/></marker><marker id="marker4748" orient="auto" refX="0" refY="0" style="overflow:visible"><path id="path4750" d="M 0,0 5,-5 -12.5,0 5,5 0,0 Z" transform="matrix(0.8,0,0,0.8,10,0)" style="fill:#007ba7;fill-opacity:1;fill-rule:evenodd;stroke:#007ba7;stroke-width:1.00000003pt;stroke-opacity:1"/></marker><marker id="Arrow1Sstart" orient="auto" refX="0" refY="0" style="overflow:visible"><path id="path4443" d="M 0,0 5,-5 -12.5,0 5,5 0,0 Z" transform="matrix(0.2,0,0,0.2,1.2,0)" style="fill:#007ba7;fill-opacity:1;fill-rule:evenodd;stroke:#007ba7;stroke-width:1.00000003pt;stroke-opacity:1"/></marker><marker id="Arrow1Lstart" orient="auto" refX="0" refY="0" style="overflow:visible"><path id="path4431" d="M 0,0 5,-5 -12.5,0 5,5 0,0 Z" transform="matrix(0.8,0,0,0.8,10,0)" style="fill:#007ba7;fill-opacity:1;fill-rule:evenodd;stroke:#007ba7;stroke-width:1.00000003pt;stroke-opacity:1"/></marker></defs><metadata id="metadata7"/><g id="layer2" transform="translate(0,-343.95834)" style="display:inline"><rect style="display:inline;opacity:1;fill:#fff;fill-opacity:1;fill-rule:nonzero;stroke:none;stroke-width:11.35377979;stroke-linecap:butt;stroke-linejoin:miter;stroke-miterlimit:4;stroke-dasharray:none;stroke-dashoffset:0;stroke-opacity:1" id="rect10940" width="158.75" height="79.375" x="0" y="343.958"/></g><g id="layer1" transform="translate(0,-217.62499)" style="display:inline"><text id="text4192-1-4-71-1-3-7-5-0-0-7-2" x="105.827" y="286.293" xml:space="preserve" style="font-style:normal;font-variant:normal;font-weight:400;font-stretch:normal;font-size:4.93888903px;line-height:125%;font-family:'Open Sans';-inkscape-font-specification:'Open Sans';letter-spacing:0;word-spacing:0;display:inline;fill:#000;fill-opacity:1;stroke:none;stroke-width:.26458335px;stroke-linecap:butt;stroke-linejoin:miter;stroke-opacity:1"><tspan style="font-style:normal;font-variant:normal;font-weight:500;font-stretch:normal;font-size:5.64444447px;font-family:'Source Code Pro';-inkscape-font-specification:'Source Code Pro Medium';text-align:center;text-anchor:middle;fill:#000;fill-opacity:1;stroke-width:.26458335px" id="tspan4509-0" x="105.827" y="286.293">Common/Traditional</tspan><tspan style="font-style:normal;font-variant:normal;font-weight:500;font-stretch:normal;font-size:5.64444447px;font-family:'Source Code Pro';-inkscape-font-specification:'Source Code Pro Medium';text-align:center;text-anchor:middle;fill:#000;fill-opacity:1;stroke-width:.26458335px" id="tspan4510" x="105.827" y="293.348">App Design</tspan></text><text id="text4192-1-4-71-1-3-7-5-0-0-7-2-9" x="29.095" y="286.293" xml:space="preserve" style="font-style:normal;font-variant:normal;font-weight:400;font-stretch:normal;font-size:4.93888855px;line-height:125%;font-family:'Open Sans';-inkscape-font-specification:'Open Sans';letter-spacing:0;word-spacing:0;display:inline;fill:#000;fill-opacity:1;stroke:none;stroke-width:.26458335px;stroke-linecap:butt;stroke-linejoin:miter;stroke-opacity:1"><tspan style="font-style:normal;font-variant:normal;font-weight:500;font-stretch:normal;font-size:5.64444447px;font-family:'Source Code Pro';-inkscape-font-specification:'Source Code Pro Medium';text-align:center;text-anchor:middle;fill:#000;fill-opacity:1;stroke-width:.26458335px" id="tspan4509-0-4" x="29.095" y="286.293">Single Page</tspan><tspan style="font-style:normal;font-variant:normal;font-weight:500;font-stretch:normal;font-size:5.64444447px;font-family:'Source Code Pro';-inkscape-font-specification:'Source Code Pro Medium';text-align:center;text-anchor:middle;fill:#000;fill-opacity:1;stroke-width:.26458335px" id="tspan4512" x="29.095" y="293.348">App Design</tspan></text><g id="g5252" transform="translate(-6.2650594,3.3450466)"><g id="g4738" transform="translate(-17.197919)"><path style="display:inline;opacity:1;fill:#34495e;fill-opacity:1;fill-rule:nonzero;stroke:none;stroke-width:4.73066664;stroke-linecap:butt;stroke-linejoin:miter;stroke-miterlimit:4;stroke-dasharray:none;stroke-dashoffset:0;stroke-opacity:1" id="rect10364-1-4" d="m 88.285979,223.30437 0,52.91666 39.687441,0 0,-52.91667 z m 1.322917,1.32291 37.041614,0 0,50.27083 -37.041614,1e-5 z"/><path id="rect4529" d="m 89.608894,224.62727 37.041616,0 0,7.9375 -37.041616,0 z" style="opacity:1;fill:#bdc3c7;fill-opacity:1;fill-rule:nonzero;stroke:none;stroke-width:3.27024174;stroke-linecap:butt;stroke-linejoin:miter;stroke-miterlimit:4;stroke-dasharray:none;stroke-dashoffset:0;stroke-opacity:1"/><path id="rect4533" d="m 98.869278,233.8877 26.458332,0 0,10.58333 -26.458332,0 z" style="opacity:1;fill:#bdc3c7;fill-opacity:1;fill-rule:nonzero;stroke:none;stroke-width:2.90674758;stroke-linecap:butt;stroke-linejoin:miter;stroke-miterlimit:4;stroke-dasharray:none;stroke-dashoffset:0;stroke-opacity:1"/><path id="rect4533-5" d="m 98.869278,245.79399 26.458332,0 0,10.58333 -26.458332,0 z" style="display:inline;opacity:1;fill:#bdc3c7;fill-opacity:1;fill-rule:nonzero;stroke:none;stroke-width:2.90674758;stroke-linecap:butt;stroke-linejoin:miter;stroke-miterlimit:4;stroke-dasharray:none;stroke-dashoffset:0;stroke-opacity:1"/><path id="rect4533-5-1" d="m 98.869278,257.70026 26.458332,0 0,10.58333 -26.458332,0 z" style="display:inline;opacity:1;fill:#bdc3c7;fill-opacity:1;fill-rule:nonzero;stroke:none;stroke-width:2.90674758;stroke-linecap:butt;stroke-linejoin:miter;stroke-miterlimit:4;stroke-dasharray:none;stroke-dashoffset:0;stroke-opacity:1"/><path id="rect4533-5-1-0" d="m 98.869278,269.60641 26.458332,0 0,5.29169 -26.458332,0 z" style="display:inline;opacity:1;fill:#bdc3c7;fill-opacity:1;fill-rule:nonzero;stroke:none;stroke-width:2.05538392;stroke-linecap:butt;stroke-linejoin:miter;stroke-miterlimit:4;stroke-dasharray:none;stroke-dashoffset:0;stroke-opacity:1"/><path id="rect4580" d="m 90.931778,233.8877 6.614583,0 0,6.61458 -6.614583,0 z" style="opacity:1;fill:#bdc3c7;fill-opacity:1;fill-rule:nonzero;stroke:none;stroke-width:2.36129379;stroke-linecap:butt;stroke-linejoin:miter;stroke-miterlimit:4;stroke-dasharray:none;stroke-dashoffset:0;stroke-opacity:1"/><path id="rect4580-8" d="m 90.931778,241.82521 6.614583,0 0,6.61459 -6.614583,0 z" style="display:inline;opacity:1;fill:#bdc3c7;fill-opacity:1;fill-rule:nonzero;stroke:none;stroke-width:2.36129379;stroke-linecap:butt;stroke-linejoin:miter;stroke-miterlimit:4;stroke-dasharray:none;stroke-dashoffset:0;stroke-opacity:1"/><path id="rect4580-8-4" d="m 90.931778,249.76274 6.614583,0 0,6.61459 -6.614583,0 z" style="display:inline;opacity:1;fill:#bdc3c7;fill-opacity:1;fill-rule:nonzero;stroke:none;stroke-width:2.36129379;stroke-linecap:butt;stroke-linejoin:miter;stroke-miterlimit:4;stroke-dasharray:none;stroke-dashoffset:0;stroke-opacity:1"/><path id="rect4681" d="m 90.931778,229.91893 10.583332,0 0,1.32292 -10.583332,0 z" style="opacity:1;fill:#ecf0f1;fill-opacity:1;fill-rule:nonzero;stroke:none;stroke-width:2.2578218;stroke-linecap:butt;stroke-linejoin:miter;stroke-miterlimit:4;stroke-dasharray:none;stroke-dashoffset:0;stroke-opacity:1"/><path id="rect4681-7" d="m 90.931808,225.9502 10.583332,0 0,2.64583 -10.583332,0 z" style="display:inline;opacity:1;fill:#fff;fill-opacity:1;fill-rule:nonzero;stroke:none;stroke-width:3.19303608;stroke-linecap:butt;stroke-linejoin:miter;stroke-miterlimit:4;stroke-dasharray:none;stroke-dashoffset:0;stroke-opacity:1"/><path id="rect4681-0" d="m 102.83801,229.91893 10.58334,0 0,1.32292 -10.58334,0 z" style="display:inline;opacity:1;fill:#fff;fill-opacity:1;fill-rule:nonzero;stroke:none;stroke-width:2.2578218;stroke-linecap:butt;stroke-linejoin:miter;stroke-miterlimit:4;stroke-dasharray:none;stroke-dashoffset:0;stroke-opacity:1"/><path id="rect4681-0-0" d="m 114.74426,229.91893 10.58334,0 0,1.32292 -10.58334,0 z" style="display:inline;opacity:1;fill:#fff;fill-opacity:1;fill-rule:nonzero;stroke:none;stroke-width:2.2578218;stroke-linecap:butt;stroke-linejoin:miter;stroke-miterlimit:4;stroke-dasharray:none;stroke-dashoffset:0;stroke-opacity:1"/></g><g id="g5240"><path style="display:inline;opacity:1;fill:#34495e;fill-opacity:1;fill-rule:nonzero;stroke:none;stroke-width:4.73066664;stroke-linecap:butt;stroke-linejoin:miter;stroke-miterlimit:4;stroke-dasharray:none;stroke-dashoffset:0;stroke-opacity:1" id="rect10364-1-4-3" d="m 113.4213,223.30436 0,52.91666 39.68744,0 0,-52.91667 z m 1.32292,1.32291 37.04161,0 0,50.27083 -37.04161,10e-6 z"/><path style="opacity:1;fill:#bdc3c7;fill-opacity:1;fill-rule:nonzero;stroke:none;stroke-width:3.27024174;stroke-linecap:butt;stroke-linejoin:miter;stroke-miterlimit:4;stroke-dasharray:none;stroke-dashoffset:0;stroke-opacity:1" id="rect4529-1" d="m 114.74422,224.62726 37.04162,0 0,7.9375 -37.04162,0 z"/><path style="opacity:1;fill:#bdc3c7;fill-opacity:1;fill-rule:nonzero;stroke:none;stroke-width:2.90674758;stroke-linecap:butt;stroke-linejoin:miter;stroke-miterlimit:4;stroke-dasharray:none;stroke-dashoffset:0;stroke-opacity:1" id="rect4533-0" d="m 116.0671,233.88769 34.39583,0 0,21.16667 -34.39583,0 z"/><path style="display:inline;opacity:1;fill:#bdc3c7;fill-opacity:1;fill-rule:nonzero;stroke:none;stroke-width:2.90674758;stroke-linecap:butt;stroke-linejoin:miter;stroke-miterlimit:4;stroke-dasharray:none;stroke-dashoffset:0;stroke-opacity:1" id="rect4533-5-1-3" d="m 116.0671,256.3773 21.16666,0 0,5.29166 -21.16666,0 z"/><path style="display:inline;opacity:1;fill:#bdc3c7;fill-opacity:1;fill-rule:nonzero;stroke:none;stroke-width:2.05538392;stroke-linecap:butt;stroke-linejoin:miter;stroke-miterlimit:4;stroke-dasharray:none;stroke-dashoffset:0;stroke-opacity:1" id="rect4533-5-1-0-5" d="m 116.0671,262.99187 21.16666,0 0,5.29168 -21.16666,0 z"/><path style="opacity:1;fill:#fff;fill-opacity:1;fill-rule:nonzero;stroke:none;stroke-width:2.2578218;stroke-linecap:butt;stroke-linejoin:miter;stroke-miterlimit:4;stroke-dasharray:none;stroke-dashoffset:0;stroke-opacity:1" id="rect4681-9" d="m 116.0671,229.91892 10.58333,0 0,1.32292 -10.58333,0 z"/><path style="display:inline;opacity:1;fill:#fff;fill-opacity:1;fill-rule:nonzero;stroke:none;stroke-width:3.19303608;stroke-linecap:butt;stroke-linejoin:miter;stroke-miterlimit:4;stroke-dasharray:none;stroke-dashoffset:0;stroke-opacity:1" id="rect4681-7-3" d="m 116.06713,225.95019 10.58333,0 0,2.64583 -10.58333,0 z"/><path style="display:inline;opacity:1;fill:#ecf0f1;fill-opacity:1;fill-rule:nonzero;stroke:none;stroke-width:2.2578218;stroke-linecap:butt;stroke-linejoin:miter;stroke-miterlimit:4;stroke-dasharray:none;stroke-dashoffset:0;stroke-opacity:1" id="rect4681-0-5" d="m 127.97333,229.91892 10.58334,0 0,1.32292 -10.58334,0 z"/><path style="display:inline;opacity:1;fill:#fff;fill-opacity:1;fill-rule:nonzero;stroke:none;stroke-width:2.2578218;stroke-linecap:butt;stroke-linejoin:miter;stroke-miterlimit:4;stroke-dasharray:none;stroke-dashoffset:0;stroke-opacity:1" id="rect4681-0-0-7" d="m 139.87958,229.91892 10.58334,0 0,1.32292 -10.58334,0 z"/><path style="display:inline;opacity:1;fill:#bdc3c7;fill-opacity:1;fill-rule:nonzero;stroke:none;stroke-width:2.05538392;stroke-linecap:butt;stroke-linejoin:miter;stroke-miterlimit:4;stroke-dasharray:none;stroke-dashoffset:0;stroke-opacity:1" id="rect4533-5-1-0-5-8" d="m 116.0671,269.60647 21.16666,0 0,5.29168 -21.16666,0 z"/></g><path id="rect4533-5-1-0-5-0" d="m 89.608864,216.68978 0,2.64583 -1.322917,0 2.645833,2.64583 0,-3.96875 42.33377,-1e-5 -5.3e-4,3.96875 1.32292,-1.32291 5.2e-4,-5.3e-4 1.32241,-1.32239 -1.32241,0 0,-2.64583 z" style="display:inline;opacity:1;fill:#bdc3c7;fill-opacity:1;fill-rule:nonzero;stroke:none;stroke-width:2.05538392;stroke-linecap:butt;stroke-linejoin:miter;stroke-miterlimit:4;stroke-dasharray:none;stroke-dashoffset:0;stroke-opacity:1"/><g id="g5049" transform="translate(-33.422516,16.924156)"><path style="display:inline;opacity:1;fill:#34495e;fill-opacity:1;fill-rule:nonzero;stroke:none;stroke-width:4.73066664;stroke-linecap:butt;stroke-linejoin:miter;stroke-miterlimit:4;stroke-dasharray:none;stroke-dashoffset:0;stroke-opacity:1" id="rect10364-1-4-3-5" d="m 158.75,230.85416 0,11.90624 30.42702,0 0,-11.90625 z m 1.32292,1.32291 27.78119,0 0,9.26041 -27.78119,1e-5 z"/><rect style="opacity:1;fill:#fff;fill-opacity:1;fill-rule:nonzero;stroke:none;stroke-width:2.11199999;stroke-linecap:butt;stroke-linejoin:miter;stroke-miterlimit:4;stroke-dasharray:none;stroke-dashoffset:0;stroke-opacity:1" id="rect5047" width="27.781" height="9.26" x="160.073" y="232.177"/><path style="display:inline;opacity:1;fill:#bdc3c7;fill-opacity:1;fill-rule:nonzero;stroke:none;stroke-width:1.76856256;stroke-linecap:butt;stroke-linejoin:miter;stroke-miterlimit:4;stroke-dasharray:none;stroke-dashoffset:0;stroke-opacity:1" id="rect4533-0-8" d="m 161.39584,233.49999 25.13535,0 0,3.96874 -25.13535,0 z"/><path style="display:inline;opacity:1;fill:#bdc3c7;fill-opacity:1;fill-rule:nonzero;stroke:none;stroke-width:1.76856256;stroke-linecap:butt;stroke-linejoin:miter;stroke-miterlimit:4;stroke-dasharray:none;stroke-dashoffset:0;stroke-opacity:1" id="rect4533-0-8-5" d="m 174.62504,238.79166 7.93744,0 0,1.32291 -7.93744,0 z"/><path style="display:inline;opacity:1;fill:#bdc3c7;fill-opacity:1;fill-rule:nonzero;stroke:none;stroke-width:1.76856256;stroke-linecap:butt;stroke-linejoin:miter;stroke-miterlimit:4;stroke-dasharray:none;stroke-dashoffset:0;stroke-opacity:1" id="rect4533-0-8-5-2" d="m 165.3646,238.79166 7.93744,0 0,1.32291 -7.93744,0 z"/></g><g id="g5091" transform="translate(-8.2868986,22.215837)"><path style="display:inline;opacity:1;fill:#34495e;fill-opacity:1;fill-rule:nonzero;stroke:none;stroke-width:4.73066664;stroke-linecap:butt;stroke-linejoin:miter;stroke-miterlimit:4;stroke-dasharray:none;stroke-dashoffset:0;stroke-opacity:1" id="rect10364-1-4-3-5-7" d="m 76.729161,212.99479 0,11.90624 30.427019,0 0,-11.90625 z m 1.32292,1.32291 27.781189,0 0,9.26041 -27.781189,1e-5 z"/><rect style="opacity:1;fill:#fff;fill-opacity:1;fill-rule:nonzero;stroke:none;stroke-width:2.11199999;stroke-linecap:butt;stroke-linejoin:miter;stroke-miterlimit:4;stroke-dasharray:none;stroke-dashoffset:0;stroke-opacity:1" id="rect5047-9" width="27.781" height="9.26" x="78.052" y="214.318"/><path style="display:inline;opacity:1;fill:#bdc3c7;fill-opacity:1;fill-rule:nonzero;stroke:none;stroke-width:1.76856256;stroke-linecap:butt;stroke-linejoin:miter;stroke-miterlimit:4;stroke-dasharray:none;stroke-dashoffset:0;stroke-opacity:1" id="rect4533-0-8-8" d="m 79.375001,215.64062 25.135349,0 0,3.96874 -25.135349,0 z"/><path style="display:inline;opacity:1;fill:#bdc3c7;fill-opacity:1;fill-rule:nonzero;stroke:none;stroke-width:1.76856256;stroke-linecap:butt;stroke-linejoin:miter;stroke-miterlimit:4;stroke-dasharray:none;stroke-dashoffset:0;stroke-opacity:1" id="rect4533-0-8-5-2-7" d="m 87.312512,220.93229 7.93744,0 0,1.32291 -7.93744,0 z"/></g></g><g id="g5201" transform="translate(-3.9188036,0.5619166)"><path id="rect10364-1-4-2" d="m 13.179361,226.08751 0,52.91666 39.687441,0 0,-52.91667 z m 1.322917,1.32291 37.041614,0 0,50.27083 -37.041614,1e-5 z" style="display:inline;opacity:1;fill:#2980b9;fill-opacity:1;fill-rule:nonzero;stroke:none;stroke-width:4.73066664;stroke-linecap:butt;stroke-linejoin:miter;stroke-miterlimit:4;stroke-dasharray:none;stroke-dashoffset:0;stroke-opacity:1"/><path id="rect4529-5" d="m 14.502276,227.41042 37.041619,0 0,7.9375 -37.041619,0 z" style="opacity:1;fill:#a1d0ef;fill-opacity:1;fill-rule:nonzero;stroke:none;stroke-width:3.27024174;stroke-linecap:butt;stroke-linejoin:miter;stroke-miterlimit:4;stroke-dasharray:none;stroke-dashoffset:0;stroke-opacity:1"/><path id="rect4533-58" d="m 23.762659,236.67084 18.520834,0 0,10.58333 -18.520834,0 z" style="opacity:1;fill:#a1d0ef;fill-opacity:1;fill-rule:nonzero;stroke:none;stroke-width:2.90674758;stroke-linecap:butt;stroke-linejoin:miter;stroke-miterlimit:4;stroke-dasharray:none;stroke-dashoffset:0;stroke-opacity:1"/><path id="rect4533-5-6" d="m 23.762659,248.57713 18.520834,0 0,10.58334 -18.520834,0 z" style="display:inline;opacity:1;fill:#a1d0ef;fill-opacity:1;fill-rule:nonzero;stroke:none;stroke-width:2.90674758;stroke-linecap:butt;stroke-linejoin:miter;stroke-miterlimit:4;stroke-dasharray:none;stroke-dashoffset:0;stroke-opacity:1"/><path id="rect4533-5-1-6" d="m 23.762659,260.4834 18.520834,0 0,10.58333 -18.520834,0 z" style="display:inline;opacity:1;fill:#a1d0ef;fill-opacity:1;fill-rule:nonzero;stroke:none;stroke-width:2.90674758;stroke-linecap:butt;stroke-linejoin:miter;stroke-miterlimit:4;stroke-dasharray:none;stroke-dashoffset:0;stroke-opacity:1"/><path id="rect4533-5-1-0-7" d="m 23.762659,272.38956 18.520834,0 0,5.29168 -18.520834,0 z" style="display:inline;opacity:1;fill:#a1d0ef;fill-opacity:1;fill-rule:nonzero;stroke:none;stroke-width:2.05538392;stroke-linecap:butt;stroke-linejoin:miter;stroke-miterlimit:4;stroke-dasharray:none;stroke-dashoffset:0;stroke-opacity:1"/><path id="rect4681-7-7" d="m 23.762669,228.73334 18.520833,0 0,2.64583 -18.520833,0 z" style="display:inline;opacity:1;fill:#fff;fill-opacity:1;fill-rule:nonzero;stroke:none;stroke-width:3.19303608;stroke-linecap:butt;stroke-linejoin:miter;stroke-miterlimit:4;stroke-dasharray:none;stroke-dashoffset:0;stroke-opacity:1"/><path id="rect4681-0-0-3" d="m 15.825195,232.70207 34.395784,0 0,1.32292 -34.395784,0 z" style="display:inline;opacity:1;fill:#fff;fill-opacity:1;fill-rule:nonzero;stroke:none;stroke-width:4.14788055;stroke-linecap:butt;stroke-linejoin:miter;stroke-miterlimit:4;stroke-dasharray:none;stroke-dashoffset:0;stroke-opacity:1"/><path id="rect4533-58-6" d="m 43.60641,236.67084 2.645833,0 0,1.32291 -2.645833,0 z" style="display:inline;opacity:1;fill:#a1d0ef;fill-opacity:1;fill-rule:nonzero;stroke:none;stroke-width:.5493238;stroke-linecap:butt;stroke-linejoin:miter;stroke-miterlimit:4;stroke-dasharray:none;stroke-dashoffset:0;stroke-opacity:1"/><path id="rect4533-58-6-3" d="m 43.606411,239.31668 2.645833,0 0,1.32291 -2.645833,0 z" style="display:inline;opacity:1;fill:#a1d0ef;fill-opacity:1;fill-rule:nonzero;stroke:none;stroke-width:.5493238;stroke-linecap:butt;stroke-linejoin:miter;stroke-miterlimit:4;stroke-dasharray:none;stroke-dashoffset:0;stroke-opacity:1"/><path id="rect4533-58-6-4" d="m 15.825155,236.67084 2.645833,0 0,2.64583 -2.645833,0 z" style="display:inline;opacity:1;fill:#a1d0ef;fill-opacity:1;fill-rule:nonzero;stroke:none;stroke-width:.5493238;stroke-linecap:butt;stroke-linejoin:miter;stroke-miterlimit:4;stroke-dasharray:none;stroke-dashoffset:0;stroke-opacity:1"/><path id="rect4533-58-6-3-4" d="m 15.825156,240.6396 2.645833,0 0,2.64583 -2.645833,0 z" style="display:inline;opacity:1;fill:#a1d0ef;fill-opacity:1;fill-rule:nonzero;stroke:none;stroke-width:.5493238;stroke-linecap:butt;stroke-linejoin:miter;stroke-miterlimit:4;stroke-dasharray:none;stroke-dashoffset:0;stroke-opacity:1"/><path id="rect4533-58-6-1" d="m 43.606411,248.57712 2.645833,0 0,1.32291 -2.645833,0 z" style="display:inline;opacity:1;fill:#a1d0ef;fill-opacity:1;fill-rule:nonzero;stroke:none;stroke-width:.5493238;stroke-linecap:butt;stroke-linejoin:miter;stroke-miterlimit:4;stroke-dasharray:none;stroke-dashoffset:0;stroke-opacity:1"/><path id="rect4533-58-6-3-1" d="m 43.606412,251.22296 2.645833,0 0,1.32291 -2.645833,0 z" style="display:inline;opacity:1;fill:#a1d0ef;fill-opacity:1;fill-rule:nonzero;stroke:none;stroke-width:.5493238;stroke-linecap:butt;stroke-linejoin:miter;stroke-miterlimit:4;stroke-dasharray:none;stroke-dashoffset:0;stroke-opacity:1"/><path id="rect4533-58-6-1-1" d="m 43.606411,260.4834 2.645833,0 0,1.32291 -2.645833,0 z" style="display:inline;opacity:1;fill:#a1d0ef;fill-opacity:1;fill-rule:nonzero;stroke:none;stroke-width:.5493238;stroke-linecap:butt;stroke-linejoin:miter;stroke-miterlimit:4;stroke-dasharray:none;stroke-dashoffset:0;stroke-opacity:1"/><path id="rect4533-58-6-3-1-0" d="m 43.606412,263.12924 2.645833,0 0,1.32291 -2.645833,0 z" style="display:inline;opacity:1;fill:#a1d0ef;fill-opacity:1;fill-rule:nonzero;stroke:none;stroke-width:.5493238;stroke-linecap:butt;stroke-linejoin:miter;stroke-miterlimit:4;stroke-dasharray:none;stroke-dashoffset:0;stroke-opacity:1"/><path id="rect4533-58-6-1-1-8" d="m 43.606411,272.38968 2.645833,0 0,1.32291 -2.645833,0 z" style="display:inline;opacity:1;fill:#a1d0ef;fill-opacity:1;fill-rule:nonzero;stroke:none;stroke-width:.5493238;stroke-linecap:butt;stroke-linejoin:miter;stroke-miterlimit:4;stroke-dasharray:none;stroke-dashoffset:0;stroke-opacity:1"/><path id="rect4533-58-6-3-1-0-8" d="m 43.606412,275.03552 2.645833,0 0,1.32291 -2.645833,0 z" style="display:inline;opacity:1;fill:#a1d0ef;fill-opacity:1;fill-rule:nonzero;stroke:none;stroke-width:.5493238;stroke-linecap:butt;stroke-linejoin:miter;stroke-miterlimit:4;stroke-dasharray:none;stroke-dashoffset:0;stroke-opacity:1"/></g></g></svg>