<svg xmlns="http://www.w3.org/2000/svg" xmlns:svg="http://www.w3.org/2000/svg" id="svg2277" width="300" height="100" version="1.0" viewBox="-8584 0 16705.23 3527.359"><metadata id="metadata2350"/><desc id="desc2279">Basmala in Naskh script. Created by baba66, http://de.wikipedia.org, 2006-03-22 License: cc-by-sa/2.0/de and GFDL</desc><g id="g4170" transform="translate(-68.50965,-31.61366)" style="fill:#000;fill-opacity:1"><path id="path2283" d="m 7454.7349,3025.5767 c 0,55.1306 -152.3265,160.38 -456.9795,310.7363 -288.8952,143.6738 -456.9796,215.5107 -506.0042,215.5107 42.0211,-91.8844 185.5932,-207.1576 428.9655,-349.1607 236.3687,-136.9913 409.7058,-212.1694 521.7621,-223.8638 8.7544,5.0119 12.2561,20.0475 12.2561,46.7775 z" style="fill:#000;fill-opacity:1"/><path id="path2285" d="m 7353.1839,2696.4635 c 0,23.3888 -7.0035,60.1425 -22.7614,110.2613 -19.2597,58.4719 -36.7685,88.5431 -52.5264,88.5431 -24.5123,0 -68.2843,-20.0475 -134.8177,-60.1425 -64.7826,-40.095 -99.8002,-68.4956 -103.3019,-86.8725 l 0,0 c 0,-30.0713 10.5052,-66.825 29.7649,-108.5907 21.0106,-50.1187 45.5229,-75.1781 70.0352,-75.1781 17.5088,0 56.0281,18.3769 119.0598,55.1306 63.0317,38.4244 94.5475,63.4838 94.5475,76.8488 z" style="fill:#000;fill-opacity:1"/><path id="path2287" d="m 6428.7195,1304.8326 c 0,13.365 -12.2561,46.7775 -38.5193,101.9082 -33.2668,78.5194 -92.7967,133.65 -178.5898,160.38 -84.0422,28.4006 -168.0844,55.1306 -250.3757,80.19 l -7.0035,-11.6944 c 0,-28.4006 38.5193,-65.1544 112.0562,-110.2612 61.2808,-36.7538 113.8072,-63.4838 157.5792,-78.5194 -45.5229,-10.0238 -70.0352,-15.0357 -77.0387,-15.0357 -120.8107,0 -185.5932,3.3413 -196.0985,11.6944 -35.0176,28.4007 -50.7755,41.7657 -47.2737,41.7657 -7.0036,0 -40.2703,-13.365 -40.2703,-21.7182 0,-160.38 182.0915,-227.205 322.1619,-227.205 117.3089,0 189.0949,3.3412 217.109,8.3531 17.5088,5.0119 26.2632,25.0594 26.2632,60.1425 z" style="fill:#000;fill-opacity:1"/><path id="path2289" d="m 4354.8603,2775.95 c 0,56.8013 -152.3265,160.38 -456.9795,310.7363 -285.3933,143.6738 -455.2287,215.5107 -506.0042,215.5107 43.772,-93.555 183.8424,-208.8282 423.7129,-349.1607 231.1161,-131.9794 406.204,-205.4869 525.2638,-220.5225 8.7544,1.6706 14.007,16.7062 14.007,43.4362 z" style="fill:#000;fill-opacity:1"/><path id="path2291" d="m 3987.1757,1735.1505 c 0,51.7893 -15.7579,81.8606 -47.2738,86.8725 -26.2632,-233.8876 -50.7755,-467.7751 -77.0387,-701.6627 -31.5158,-268.97062 -64.7825,-501.18754 -101.551,-694.98009 l 89.2949,-150.35628 c 91.0457,509.54073 136.5686,995.69267 136.5686,1460.12657 z" style="fill:#000;fill-opacity:1"/><path id="path2293" d="m 2617.9879,2854.4694 c 0,58.4719 -152.3265,163.7213 -456.9796,314.0776 -288.8951,143.6737 -456.9795,215.5106 -506.0042,215.5106 42.0212,-93.555 183.8424,-208.8281 423.7129,-347.49 231.1161,-135.3207 406.204,-208.8282 523.513,-223.8638 10.5052,1.6706 15.7579,15.0356 15.7579,41.7656 z" style="fill:#000;fill-opacity:1"/><path id="path2295" d="m 2789.5741,1153.7728 c 0,128.6382 -50.7755,193.7926 -154.0774,193.7926 -36.7685,0 -59.5299,-8.3531 -64.7826,-23.3888 -10.5052,20.0475 -33.2667,40.095 -68.2843,58.4719 -36.7684,16.7063 -66.5334,26.73 -92.7966,26.73 -85.7931,0 -129.5651,-45.1069 -129.5651,-133.65 0,-63.4838 19.2597,-131.9794 59.5299,-203.8163 l 82.2914,0 c 0,11.6944 -3.5018,30.0713 -14.0071,53.46 -8.7544,23.3888 -12.2561,41.7657 -12.2561,55.1307 0,28.4006 15.7579,41.7656 47.2737,41.7656 68.2843,0 103.3019,-58.4719 103.3019,-178.7569 l 77.0387,-50.11878 c -3.5017,16.70628 -5.2526,53.45998 -5.2526,106.91998 0,50.1188 15.7579,73.5076 50.7755,73.5076 29.7649,0 43.772,-43.4363 43.772,-131.9794 l 64.7825,-48.44818 c 8.7544,111.93188 12.2562,165.39188 12.2562,160.37998 z" style="fill:#000;fill-opacity:1"/><path id="path2297" d="m 2553.2053,831.34217 -50.7755,28.40063 c -7.0035,-61.81313 -29.7649,-138.6619 -71.786,-228.87566 -42.0211,-90.21378 -84.0422,-157.03879 -127.8142,-200.47505 l 71.786,-183.76879 c 119.0598,35.08313 178.5897,197.13379 178.5897,486.15198 l 0,98.56689 z" style="fill:#000;fill-opacity:1"/><path id="path2299" d="m -1263.712,1867.1299 c 0,41.7656 -1.7509,73.5075 -3.5018,93.555 l -61.2808,11.6944 c -1.7508,-76.8488 -17.5088,-158.7095 -45.5228,-243.9113 -35.0176,-96.8963 -78.7896,-167.0626 -129.5651,-208.8282 l 22.7614,-223.8638 c 68.2843,38.4244 122.5616,125.2969 162.8318,260.6175 36.7685,113.6026 54.2773,217.1813 54.2773,310.7364 z" style="fill:#000;fill-opacity:1"/><path id="path2301" d="m -477.56711,817.97717 c 0,13.365 -12.25616,46.77751 -36.76847,101.90814 -35.01759,76.84876 -96.29837,131.97939 -183.84235,163.72129 -82.29134,25.0594 -164.58268,50.1187 -248.62489,76.8488 -1.75088,-10.0238 -3.50176,-15.0357 -3.50176,-15.0357 0,-28.4006 36.76847,-65.1544 110.30541,-110.2612 63.03166,-36.7538 115.55805,-61.81318 157.57916,-75.17818 -42.02111,-11.69438 -68.28431,-18.37688 -77.0387,-18.37688 -117.30893,0 -182.09147,5.01187 -196.09851,15.03563 -1.75088,1.67062 -8.7544,10.02375 -21.01055,21.71813 -12.25616,13.365 -21.01056,20.0475 -26.26323,20.0475 -3.5017,0 -12.2561,-3.34125 -24.5123,-10.02375 -10.5053,-6.6825 -17.5088,-11.69438 -17.5088,-15.03563 0,-15.03563 8.7544,-41.76563 28.0141,-81.86064 38.51935,-93.55501 138.31948,-142.00315 295.89864,-142.00315 115.55804,0 189.09498,3.34125 215.35818,8.35313 19.25967,5.01188 28.01407,25.05938 28.01407,60.14251 z" style="fill:#000;fill-opacity:1"/><path id="path2303" d="m -587.87252,275.02393 c 0,55.13064 -131.31596,145.34441 -393.94789,273.98256 -164.58269,76.84877 -329.16539,153.69753 -491.99719,228.87567 -10.5052,15.03563 -31.5158,23.38876 -63.0316,23.38876 l -14.0071,-3.34125 c 77.0387,-165.39191 343.1724,-339.13695 796.65022,-517.89386 89.29486,-33.41251 140.07037,-50.11876 152.32652,-50.11876 l 1.75088,0 c 8.7544,18.37688 12.25616,33.4125 12.25616,45.10688 z" style="fill:#000;fill-opacity:1"/><path id="path2305" d="m 383.86561,1013.4403 c 0,61.8132 -15.75791,125.2969 -47.27374,188.7807 -36.76847,78.5194 -84.04222,116.9438 -141.82124,116.9438 -10.50528,0 -26.2632,-5.0119 -50.77551,-11.6944 -29.76495,40.095 -75.28782,58.4719 -138.3194824,58.4719 -85.7930966,0 -127.8142076,-50.1188 -127.8142076,-152.0269 0,-133.6501 35.017593,-200.4751 103.301894,-200.4751 8.754398,0 14.0070364,5.0119 15.7579159,16.7063 1.7508796,5.0119 1.7508796,16.7062 0,31.7419 -1.7508795,16.7062 -3.501759,25.0593 -3.501759,25.0593 0,61.8132 19.2596751,93.5551 56.0281451,93.5551 56.028144,0 84.042214,-61.8132 84.042214,-183.76883 l 43.77199,-48.44813 c 14.00704,1.67062 24.51231,28.40063 31.51583,80.18996 7.00352,51.7894 22.76144,78.5194 49.02463,78.5194 35.01759,0 52.52638,-46.7775 52.52638,-138.66186 l 63.03167,-36.75375 c 7.00352,15.03562 10.50527,41.76563 10.50527,81.86061 z" style="fill:#000;fill-opacity:1"/><path id="path2307" d="m 630.73963,333.49582 c 0,56.80126 -129.56509,150.35628 -392.19702,277.32381 -164.582671,78.51939 -330.916226,153.69753 -493.74802,228.87567 -12.25616,16.70625 -33.26671,23.38875 -66.53342,23.38875 l -10.50528,-3.34125 C -288.47212,767.85841 -139.64736,649.24401 114.23017,503.8996 359.3533,361.89645 529.18861,291.73018 621.98523,291.73018 c 5.25264,28.40063 8.7544,41.76564 8.7544,41.76564 z" style="fill:#000;fill-opacity:1"/><path id="path2309" d="m 1514.9338,2438.4837 c 0,53.46 -17.5088,81.8606 -50.7755,88.5431 -26.2632,-233.8875 -52.5264,-467.775 -77.0387,-701.6626 -31.5159,-270.6413 -64.7826,-502.8582 -101.551,-696.6507 l 92.7966,-152.02693 c 91.0457,537.94133 136.5686,1024.09333 136.5686,1461.79713 z" style="fill:#000;fill-opacity:1"/><path id="path2311" d="m -7071.3794,3018.1907 c 0,-23.3888 -5.2526,-38.4244 -12.2561,-41.7656 -101.5511,13.365 -238.1197,83.5312 -411.4567,212.1694 -190.8459,140.3325 -285.3934,258.9469 -285.3934,359.1844 l 0,-20.0475 c 31.5158,-33.4125 164.5827,-120.285 400.9514,-260.6175 204.8529,-118.6144 308.1548,-200.4751 308.1548,-248.9232 z" style="fill:#000;fill-opacity:1"/><path id="path2313" d="m -5376.528,2916.2825 c 0,23.3888 -7.0035,60.1426 -22.7614,110.2613 -21.0106,58.4719 -38.5194,88.5432 -54.2773,88.5432 -22.7614,0 -68.2843,-20.0476 -134.8177,-58.4719 -66.5335,-38.4244 -101.551,-66.825 -105.0528,-85.2019 l 3.5018,0 c 1.7508,-35.0832 12.2561,-70.1663 31.5158,-110.2613 17.5088,-38.4244 42.0211,-63.4838 68.2843,-76.8488 143.5721,56.8013 213.6073,100.2376 213.6073,131.9794 z" style="fill:#000;fill-opacity:1"/><path id="path2315" d="m -5068.3732,2854.4694 c 0,23.3888 -7.0035,60.1425 -19.2597,110.2613 -19.2597,58.4719 -36.7685,88.5431 -54.2773,88.5431 -22.7614,0 -68.2843,-20.0475 -136.5686,-58.4719 -66.5334,-38.4244 -101.551,-66.825 -106.8036,-86.8725 l 3.5017,0 c 0,-23.3887 10.5053,-60.1425 29.765,-106.92 22.7614,-55.1306 45.5229,-81.8606 64.7825,-81.8606 14.0071,0 54.2773,20.0475 120.8107,58.4718 66.5334,40.095 98.0493,65.1544 98.0493,76.8488 z" style="fill:#000;fill-opacity:1"/><path id="path2317" d="m -4427.5513,3222.007 c 0,43.4362 0,75.1781 -3.5018,96.8962 l -61.2808,11.6944 c -1.7508,-78.5194 -17.5088,-158.7094 -43.7719,-243.9113 -36.7685,-98.5669 -80.5405,-167.0625 -131.316,-208.8281 l 24.5123,-227.2051 c 66.5334,40.095 120.8107,126.9675 162.8318,260.6176 35.0176,111.9319 52.5264,215.5106 52.5264,310.7363 z" style="fill:#000;fill-opacity:1"/><path id="path2319" d="m -6202.9432,549.00649 c 0,13.36501 -12.2561,46.77751 -35.0175,101.90815 -35.0176,76.84876 -96.2984,131.9794 -183.8424,163.72128 -84.0422,25.05938 -166.3335,50.11876 -250.3758,76.84876 -1.7508,-10.02375 -1.7508,-13.365 -1.7508,-13.365 0,-28.40063 36.7684,-65.15438 112.0562,-111.93189 63.0317,-38.42439 115.5581,-63.48377 157.5792,-75.17814 -42.0211,-11.69438 -68.2843,-16.70626 -77.0387,-16.70626 -117.3089,0 -182.0915,3.34125 -196.0985,13.36501 -1.7509,1.67062 -8.7544,10.02375 -22.7614,23.38875 -12.2562,13.365 -21.0106,18.37688 -24.5123,18.37688 -7.0036,0 -14.0071,-3.34125 -26.2632,-8.35313 -10.5053,-6.6825 -15.758,-13.365 -15.758,-16.70625 0,-15.03563 8.7544,-41.76563 26.2632,-81.86064 40.2703,-93.55503 138.3195,-142.00316 297.6496,-142.00316 122.5615,0 194.3476,3.34125 215.3581,10.02375 15.758,3.34125 24.5123,23.38876 24.5123,58.47189 z" style="fill:#000;fill-opacity:1"/><path id="path2321" d="m -1510.586,3522.7195 c 0,58.4719 -150.5757,162.0507 -455.2287,314.0776 -288.8951,140.3325 -458.7304,212.1694 -507.7551,212.1694 78.7896,-167.0625 344.9233,-339.1369 798.4011,-517.8938 87.544,-33.4125 138.3195,-51.7894 150.5756,-51.7894 l 5.2527,3.3412 c 7.0035,15.0357 8.7544,28.4007 8.7544,40.095 z" style="fill:#000;fill-opacity:1"/><path id="path2323" d="m -3158.1637,295.07143 c -56.0281,76.84877 -379.9408,217.1813 -971.7381,417.65635 -465.7339,158.7094 -1013.7592,330.78382 -1645.8267,514.55262 -576.0394,167.0625 -901.703,253.935 -978.7417,260.6175 l -26.2632,-20.0475 c 68.2843,-83.5313 192.5968,-160.38 369.4356,-225.5344 36.7685,-13.365 180.3406,-56.8013 434.2181,-130.3088 477.9901,-143.67376 955.9802,-285.6769 1433.9703,-427.68005 884.1942,-262.28819 1344.6755,-392.59697 1384.9457,-392.59697 l 0,3.34125 z" style="fill:#000;fill-opacity:1"/><path id="path2325" d="m -2435.0504,2719.1488 c 0,21.7181 -7.0035,58.4718 -21.0106,110.2612 -17.5088,58.4719 -35.0176,86.8725 -52.5264,86.8725 -24.5123,0 -70.0351,-18.3768 -136.5686,-56.8012 -66.5334,-38.4244 -103.3019,-68.4957 -106.8036,-86.8725 l 3.5017,0 c 0,-28.4007 10.5053,-66.8251 31.5159,-115.2732 22.7614,-46.7775 45.5228,-71.8369 68.2843,-71.8369 15.7579,0 56.0281,20.0475 119.0598,56.8013 63.0317,38.4244 94.5475,63.4837 94.5475,76.8488 z" style="fill:#000;fill-opacity:1"/><path id="path2327" d="m -2618.8928,1992.4268 c 0,91.8843 -22.7614,180.4275 -71.786,265.6294 -52.5264,95.2256 -122.5616,155.3681 -206.6038,178.7569 -14.007,21.7181 -21.0106,58.4719 -21.0106,106.92 0,113.6025 -75.2878,237.2288 -224.1125,374.2201 -148.8248,136.9912 -281.8916,205.4869 -400.9515,205.4869 -75.2878,0 -159.33,-23.3888 -252.1266,-70.1663 -92.7966,-48.4481 -161.0809,-101.9081 -201.3512,-162.0506 l 31.5159,-28.4007 c 36.7684,36.7538 134.8177,53.46 294.1477,53.46 98.0493,0 227.6144,-40.095 388.6953,-120.285 175.0879,-91.8844 264.3828,-178.7569 264.3828,-260.6175 0,-26.73 -14.007,-55.1307 -38.5193,-85.2019 -36.7685,-45.1069 -56.0282,-70.1663 -59.53,-76.8488 7.0036,-81.8606 21.0106,-136.9912 42.0212,-162.0506 21.0105,-25.0594 68.2843,-38.4244 141.8212,-38.4244 47.2737,0 94.5475,-20.0475 141.8212,-60.1425 47.2738,-41.7657 71.7861,-83.5313 71.7861,-128.6382 0,-113.6025 -29.765,-282.3357 -89.2949,-504.5288 -59.5299,-222.1932 -89.2948,-387.5851 -89.2948,-494.5051 0,-177.08628 28.0141,-265.62942 82.2913,-265.62942 l 33.2667,5.01187 c 0,71.83689 26.2632,123.62628 77.0387,155.36816 5.2527,38.42437 8.7544,71.83688 8.7544,98.56689 0,11.69437 -5.2526,28.4006 -14.007,51.7894 -10.5053,21.7181 -15.7579,38.4244 -15.7579,45.1069 0,101.9081 17.5088,253.935 54.2772,457.7513 35.0176,203.8163 52.5264,357.5138 52.5264,459.422 z" style="fill:#000;fill-opacity:1"/><path id="path2329" d="m -3179.1742,951.62719 c 0,61.81311 -15.7579,125.29691 -47.2738,188.78061 -36.7684,76.8488 -85.7931,115.2732 -141.8212,115.2732 -10.5053,0 -28.0141,-3.3413 -50.7755,-10.0238 -29.765,38.4244 -75.2878,58.4719 -136.5686,58.4719 -87.544,0 -129.5651,-50.1187 -129.5651,-152.0269 0,-133.65 33.2667,-200.47501 103.3019,-200.47501 7.0035,0 12.2562,5.01188 14.007,16.70625 1.7509,6.6825 1.7509,18.37688 0,33.41246 -1.7508,16.7063 -1.7508,25.0594 -1.7508,25.0594 0,60.1425 17.5087,90.2138 56.0281,90.2138 54.2773,0 82.2913,-60.1425 82.2913,-183.76879 l 45.5229,-45.10688 c 12.2562,1.67062 24.5123,28.40063 31.5158,80.19001 8.7544,50.11876 24.5123,75.17816 50.7755,75.17816 33.2668,0 50.7755,-45.1069 50.7755,-138.66192 l 61.2808,-36.75375 c 8.7544,20.0475 12.2562,46.7775 12.2562,83.53126 z" style="fill:#000;fill-opacity:1"/><path id="path2331" d="m -2020.092,2323.2106 c 0,50.1187 -15.7579,78.5193 -50.7755,85.2018 -24.5123,-233.8875 -50.7755,-467.775 -77.0387,-701.6626 -31.5158,-270.6413 -64.7825,-502.8582 -99.8001,-696.6507 l 91.0457,-150.3563 c 91.0458,537.9413 136.5686,1025.7639 136.5686,1463.4678 z" style="fill:#000;fill-opacity:1"/><path id="path2358" d="m 6894.9733,1053.2251 c -31.5165,0 -69.1624,137.5022 -111.1841,408.1434 l 7.7211,2.947 c 22.7612,0 44.0537,-16.6845 63.3132,-50.097 19.2591,-33.4125 36.7441,-48.6236 52.5036,-48.6236 182.091,312.407 270.2387,530.582 270.2392,654.2082 -5e-4,65.1544 -142.0449,97.2473 -194.5722,97.2473 -70.0356,0 -170.9943,-50.0645 -174.4973,-125.2426 l -63.3132,35.3626 c -5e-4,96.8963 -43.5945,249.0119 -171.4088,249.0117 -19.2601,0 -74.1218,-29.8524 -74.1228,-51.5705 -5e-4,-80.19 -6.4808,-135.1514 -16.9864,-163.552 l -49.4152,27.9953 c -5e-4,198.8044 -218.0682,290.268 -398.4098,290.2681 -101.5516,0 -162.8398,-149.6063 -222.3682,-142.9238 -211.5577,27.9417 -416.7701,64.2648 -690.2681,38.3094 l 0,-2.9468 c -219.4567,-24.3136 -455.8025,-45.7561 -654.751,-73.6722 l 0,-5.8936 c -71.7859,-5.0119 -150.6792,-48.1968 -234.7221,-126.7161 -84.0422,-80.1901 -152.6488,-117.8755 -206.9259,-117.8754 -152.3267,0 -227.0008,136.9106 -227.0008,412.5638 -217.1091,212.1694 -436.0979,359.0927 -653.2068,437.6123 l 0,53.0438 c 194.3478,-23.3887 339.1724,-59.3103 435.4711,-106.0877 122.5616,-61.8131 222.5408,-164.4729 299.5795,-306.476 42.0211,68.4956 121.6324,101.6675 242.443,101.6675 101.5512,0 162.752,-24.8295 183.7627,-76.619 107.6658,36.0387 360.9743,28.8039 770.5679,66.3049 l 0,1.4734 c 1.4784,-0.1761 3.1521,0.1762 4.6326,0 2.1406,0.1974 4.0272,-0.1997 6.1768,0 l 0,-1.4734 c 253.3507,-30.0801 534.9701,-59.362 748.9487,-89.8799 3.501,0 95.598,184.1802 188.3953,184.1802 103.3014,0 274.643,-40.331 328.9197,-135.5567 70.0346,55.1306 178.4757,37.822 262.518,29.4688 75.2875,-90.2137 144.3081,-210.6369 203.8376,-360.9932 40.2699,120.285 115.5643,181.2333 222.3682,181.2333 161.0806,0 240.9004,-187.9547 240.899,-318.2635 -5e-4,-324.1013 -194.0776,-699.6724 -381.4233,-963.6311 l -7.7212,-2.9469 z M 4041.2476,2147.9925 c 38.5191,0 58.681,33.1721 58.6805,101.6676 l -143.6129,-60.4111 c 31.516,-28.4007 58.6697,-41.2561 84.9324,-41.2565 z" style="fill:#000;fill-opacity:1"/><path id="path2335" d="m 4158.7618,-349.78993 c 0,90.21376 -45.5229,173.74503 -136.5685,250.593786 -89.2949,78.51939 -183.8424,116.94378 -278.3899,116.94378 -35.0176,0 -75.2878,-11.6943804 -122.5615,-35.08314 -47.2738,-25.05938 -78.7896,-36.75375 -99.8002,-36.75375 -22.7614,0 -49.0246,23.38875 -77.0387,66.82501 -28.0141,45.10688 -54.2772,68.49564 -78.7896,70.16626 5.2527,-68.49563 35.0176,-135.32065 89.2949,-200.475026 54.2773,-65.15439 117.3089,-96.89627 185.5932,-96.89627 33.2667,0 73.537,8.35312 119.0598,25.05938 43.772,-56.80126 85.7931,-113.60253 129.5651,-172.07441 59.5299,-65.15439 122.5616,-96.89627 187.3441,-96.89627 22.7614,0 43.772,11.69438 59.5299,35.08313 15.7579,25.05938 22.7614,48.44814 22.7614,73.50752 z m -159.33,46.7775 c -31.5158,3.34126 -64.7825,18.37688 -101.551,50.11876 -35.0176,31.74189 -56.0281,63.48377 -64.7825,95.22565 3.5017,1.67062 8.7544,1.67062 12.2561,1.67062 47.2738,0 80.5405,-6.6825 98.0493,-21.71813 36.7685,-33.4125 56.0281,-75.17814 56.0281,-125.2969 z" style="fill:#000;fill-opacity:1"/><path id="path2337" d="m 3255.308,2226.3143 c 0,101.9081 -8.7544,177.0863 -24.5123,227.205 -26.2632,86.8725 -80.5404,130.3088 -162.8318,130.3088 -68.2843,0 -131.3159,-23.3888 -185.5932,-70.1663 -56.0282,-46.7775 -94.5475,-101.9081 -113.8072,-165.3919 -14.007,73.5075 -52.5264,136.9913 -115.558,190.4513 -63.0317,55.1307 -133.0669,81.8607 -210.1056,81.8607 -119.0598,0 -210.1055,-65.1544 -276.6389,-193.7926 -28.0141,51.7894 -99.8002,76.8488 -210.1056,76.8488 -145.323,0 -218.8599,-33.4125 -218.8599,-98.5669 0,-193.7925 148.8247,-344.1488 444.7234,-447.7276 l -5.2527,-101.9081 c 17.5088,-20.0475 35.0176,-41.7657 52.5264,-65.1544 17.5088,-21.7181 26.2632,-45.1069 26.2632,-66.825 21.0106,130.3088 40.2703,260.6175 59.5299,392.5969 31.5159,188.7807 89.2949,284.0063 175.088,284.0063 64.7825,0 113.8071,-31.7418 148.8247,-93.555 29.765,-50.1187 43.772,-106.92 43.772,-173.745 0,-50.1188 -7.0035,-115.2732 -21.0105,-193.7926 -17.5088,-100.2375 -28.0141,-165.3919 -31.5159,-195.4631 21.0106,-21.7181 38.5194,-53.46 49.0247,-96.8963 12.2561,-43.4362 26.2632,-73.5075 38.5193,-90.2138 54.2773,235.5582 89.2949,382.5732 106.8037,437.7039 71.786,220.5225 150.5756,332.4544 234.6178,332.4544 28.0141,0 42.0211,-48.4481 42.0211,-145.3444 0,-45.1069 -24.5123,-135.3206 -73.5369,-268.9707 -40.2702,-111.9319 -77.0387,-202.1456 -110.3054,-268.9706 15.7579,-18.3769 33.2667,-51.7894 50.7755,-101.9082 19.2597,-48.4481 38.5193,-81.8606 56.0281,-101.9081 12.2562,51.7894 57.7791,182.0981 138.3195,390.9263 61.2808,163.7213 92.7966,295.7007 92.7966,395.9382 z m -1132.819,-36.7538 c 0,-21.7181 -3.5018,-41.7656 -8.7544,-58.4718 l -17.5088,0 c -78.7896,0 -133.0669,30.0712 -161.0809,90.2137 0,5.0119 -1.7509,15.0357 -5.2527,28.4007 0,1.6706 -1.7508,3.3412 -3.5017,5.0118 0,15.0357 7.0035,28.4007 21.0105,41.7657 14.0071,11.6943 29.765,18.3768 45.5229,18.3768 85.7931,0 129.5651,-41.7656 129.5651,-125.2969 z" style="fill:#000;fill-opacity:1"/><path id="path2339" d="m -1559.6107,2585.4987 c -10.5052,816.9358 -1013.7592,1226.239 -2888.9512,1226.239 -810.6572,0 -2057.2834,-218.8519 -2661.3368,-1149.3902 l 38.5193,-23.3888 c 919.2118,684.9564 1822.6656,875.4077 2768.1405,875.4077 1328.9176,0 2428.4699,-242.2407 2619.3158,-725.0514 -70.0352,-145.3444 -105.0528,-260.6175 -105.0528,-344.1488 0,-55.1306 24.5123,-106.92 75.2878,-157.0388 l 22.7615,0 c 19.2597,0 56.0281,6.6825 110.3054,20.0475 52.5264,13.365 91.0457,20.0475 112.0563,20.0475 l 0,1.6707 c 210.1055,-5.0119 332.6671,-46.7775 367.6847,-123.6263 64.7825,-145.3444 161.0809,-250.5938 287.14422,-315.7482 59.5299,-30.0712 204.85291,-78.5194 435.969,-145.3444 -78.78958,-51.7894 -171.58619,-78.5194 -281.8916,-78.5194 -33.26671,0 -98.04925,5.0119 -194.34763,13.365 -84.04222,8.3531 -150.57559,10.0238 -201.35119,6.6825 22.7615,-190.4513 115.5581,-285.6769 278.38989,-285.6769 117.30893,0 292.39688,35.0831 521.7621,103.5788 238.119614,71.8368 418.4602,110.2612 539.27089,116.9437 l -92.79661,205.4869 c -92.796618,5.0119 -199.6002686,13.3651 -318.66008,28.4007 -190.84586,295.7007 -285.39336,544.6238 -285.39336,750.1107 0,113.6026 33.26671,205.4869 99.80013,273.9826 66.53343,70.1662 157.57916,105.2494 276.638969,105.2494 98.049253,0 227.614341,-40.095 388.695251,-121.9557 173.33708,-88.5431 260.88105,-175.4156 260.88105,-260.6175 0,-26.73 -15.75791,-60.1425 -47.27375,-96.8963 -31.51583,-36.7537 -47.27374,-58.4719 -47.27374,-63.4838 0,-76.8487 12.25615,-130.3087 40.27023,-158.7093 26.26319,-28.4007 73.53694,-41.7657 143.57212,-41.7657 47.27374,0 94.54749,-20.0475 141.82124,-61.8131 47.27375,-40.095 71.78606,-83.5313 71.78606,-128.6382 0,-58.4718 -42.02111,-235.5581 -122.56157,-534.6001 -87.54397,-310.7363 -150.57564,-494.5051 -192.59674,-551.30631 -28.01408,48.44811 -42.02111,73.50751 -42.02111,73.50751 0,78.5194 19.25967,202.1457 57.77902,367.5376 38.51935,167.0625 57.77903,292.3594 57.77903,379.2319 0,55.1307 -15.75792,105.2494 -47.27375,150.3563 l 3.50176,-71.8369 c 3.50176,-100.2375 -17.5088,-245.5819 -63.03167,-432.692 -47.27374,-195.4631 -70.03518,-339.1369 -70.03518,-432.6919 0,-100.23752 31.51583,-148.68565 98.04926,-148.68565 110.30541,0 213.6073,178.75685 308.15479,539.61195 75.28782,292.3594 112.05627,516.2232 112.05627,669.9208 0,93.555 -22.76141,182.0981 -70.03516,267.3 -54.27726,95.2256 -122.56157,155.3682 -208.35466,177.0863 -14.00704,23.3887 -21.01056,58.4719 -21.01056,108.5906 0,128.6382 -78.78957,258.947 -234.61785,387.5851 -157.57916,126.9675 -306.40392,192.1219 -446.474281,192.1219 -157.579159,0 -281.891599,-51.7894 -374.688219,-153.6975 -92.79661,-101.9082 -138.31948,-227.2051 -138.31948,-379.232 0,-218.8519 91.04573,-482.8107 271.38633,-791.8763 -271.38633,38.4243 -455.22868,101.9081 -549.77617,190.4512 71.78606,76.8488 108.55453,160.3801 108.55453,248.9232 0,58.4719 -10.50528,108.5906 -31.51584,148.6857 -26.26319,55.1306 -66.53342,83.5312 -122.56156,83.5312 -94.5475,0 -190.84587,-46.7775 -290.64598,-136.9913 -22.7615,68.4957 -87.544,120.2851 -192.5968,158.7094 -59.5299,21.7182 -120.8107,40.0951 -183.8423,41.7657 -49.0246,1.6706 -80.5405,-5.0119 -91.0458,-16.7063 z m 723.11329,-350.8313 c 0,-41.7656 1.75088,-98.5669 -59.52991,-98.5669 -26.26319,0 -73.53694,18.3769 -73.53694,48.4482 50.77551,33.4125 77.0387,50.1187 133.06685,50.1187 z" style="fill:#000;fill-opacity:1"/><path id="path2341" d="m 1683.0182,353.54333 c 0,78.51939 -43.772,158.7094 -129.5651,242.24067 -87.5439,83.53127 -171.5862,125.2969 -252.1266,125.2969 -47.2738,0 -98.0493,-11.69437 -148.8248,-35.08313 -50.7755,-23.38875 -85.7931,-35.08313 -103.3019,-35.08313 -24.5123,0 -50.77547,21.71813 -78.78955,66.82501 -28.01407,43.43626 -56.02814,66.82501 -82.29133,68.49564 8.75439,-68.49564 38.51935,-133.65003 89.29485,-195.46316 56.02813,-66.82502 117.30893,-100.23753 187.34413,-100.23753 38.5193,0 78.7896,8.35313 119.0598,25.05938 42.0211,-56.80126 85.7931,-115.27315 129.5651,-173.74504 61.2808,-63.48376 124.3124,-95.22564 187.3441,-95.22564 22.7614,0 43.772,11.69438 59.5299,35.08313 15.7579,23.38876 22.7614,48.44814 22.7614,71.8369 z m -159.33,45.10688 c -31.5158,1.67062 -66.5334,20.0475 -101.551,51.78938 -35.0176,31.74189 -57.7791,63.48377 -64.7826,95.22565 3.5018,3.34125 8.7544,3.34125 14.0071,3.34125 101.551,0 152.3265,-50.11876 152.3265,-150.35628 z" style="fill:#000;fill-opacity:1"/><path id="path2343" d="m -1850.2567,234.92892 c 0,76.84877 -43.7719,158.70941 -129.565,242.24068 -85.7931,83.53127 -169.8354,125.2969 -253.8776,125.2969 -47.2737,0 -96.2983,-11.69437 -147.0739,-35.08313 -52.5263,-23.38876 -87.5439,-35.08314 -106.8036,-35.08314 -24.5123,0 -50.7755,21.71814 -77.0387,66.82502 -28.0141,43.43626 -54.2773,66.82502 -80.5405,68.49564 5.2527,-66.82501 35.0176,-133.65003 91.0458,-198.80442 54.2772,-65.15438 115.558,-98.56689 183.8423,-98.56689 35.0176,0 73.537,8.35313 119.0598,26.73 43.772,-56.80126 87.544,-115.27315 131.316,-173.74503 61.2808,-63.48377 122.5616,-95.22564 185.5932,-95.22564 24.5123,0 43.772,11.69437 59.5299,35.08312 15.7579,23.38876 24.5123,46.77751 24.5123,71.83689 z m -161.0809,48.44814 c -31.5158,1.67062 -64.7825,18.37688 -99.8001,50.11876 -36.7685,30.07126 -57.779,61.81314 -66.5334,93.55502 5.2526,1.67062 10.5052,3.34125 15.7579,3.34125 47.2737,0 78.7896,-6.6825 94.5475,-20.0475 38.5193,-31.74188 56.0281,-73.50752 56.0281,-126.96753 z" style="fill:#000;fill-opacity:1"/><path id="path2345" d="m -3144.1566,1827.0348 -183.8424,222.1932 c -29.7649,3.3413 -61.2808,5.0119 -94.5475,5.0119 -38.5193,0 -98.0492,-3.3413 -176.8388,-10.0238 -77.0387,-6.6825 -134.8177,-10.0237 -169.8353,-10.0237 -126.0633,0 -252.1267,40.095 -379.9409,121.9556 -49.0246,30.0713 -141.8212,103.5788 -278.3898,220.5226 -94.5475,81.8606 -166.3336,121.9556 -213.6073,121.9556 -77.0387,0 -150.5757,-80.19 -218.86,-237.2288 -210.1055,185.4394 -731.8676,350.8313 -1122.3137,350.8313 -548.0253,0 -761.6326,-96.8962 -878.9416,-150.3562 l -162.8317,78.5193 c -115.5581,0 -194.3477,-33.4125 -239.8705,-101.9081 -122.5616,227.205 -295.8987,364.1963 -516.5095,412.6445 l 0,-53.4601 c 0,-18.3768 64.7825,-90.2137 196.0985,-217.1812 77.0387,-73.5076 154.0774,-147.0151 234.6179,-220.5226 -3.5018,-275.6532 73.5369,-412.6444 231.1161,-412.6444 24.5123,0 105.0527,13.365 192.5967,95.2256 243.3723,232.2169 470.9866,302.3832 1073.2892,302.3832 477.9901,0 735.3694,-101.9081 1031.268,-225.5344 71.7861,98.5669 143.5721,147.015 217.1091,147.015 47.2737,0 115.558,-26.73 206.6037,-78.5194 155.8283,-93.555 246.8741,-143.6738 269.6355,-153.6975 119.0598,-58.4719 231.1161,-91.8844 337.9197,-98.5669 -138.3195,-28.4006 -292.3968,-45.1069 -462.2322,-51.7894 -288.8951,-13.365 -435.969,-20.0475 -444.7234,-20.0475 24.5124,-190.4513 117.309,-285.6769 278.3899,-285.6769 145.323,0 353.6776,40.095 628.5657,116.9437 290.646,80.1901 506.0042,125.2969 646.0746,131.9794 z m -3930.7246,390.9264 c 0,-46.7775 -10.5052,-78.5194 -29.7649,-93.555 -5.2526,-3.3413 -10.5053,-5.0119 -12.2562,-5.0119 l -21.0105,0 c -26.2632,0 -54.2773,13.365 -82.2914,40.095 l 145.323,58.4719 z" style="fill:#000;fill-opacity:1"/></g></svg>